<?xml version="1.0" encoding="UTF-8" standalone="no"?>
<!-- Created with Inkscape (http://www.inkscape.org/) -->

<svg
   width="1920"
   height="1080"
   viewBox="0 0 1920 1080"
   version="1.1"
   id="svg1"
   inkscape:export-filename="background.svg"
   inkscape:export-xdpi="96"
   inkscape:export-ydpi="96"
   inkscape:version="1.3.2 (091e20e, 2023-11-25, custom)"
   sodipodi:docname="background.svg"
   xmlns:inkscape="http://www.inkscape.org/namespaces/inkscape"
   xmlns:sodipodi="http://sodipodi.sourceforge.net/DTD/sodipodi-0.dtd"
   xmlns:xlink="http://www.w3.org/1999/xlink"
   xmlns="http://www.w3.org/2000/svg"
   xmlns:svg="http://www.w3.org/2000/svg">
  <sodipodi:namedview
     id="namedview1"
     pagecolor="#ffffff"
     bordercolor="#000000"
     borderopacity="0.25"
     inkscape:showpageshadow="2"
     inkscape:pageopacity="0.0"
     inkscape:pagecheckerboard="0"
     inkscape:deskcolor="#d1d1d1"
     inkscape:document-units="px"
     inkscape:zoom="0.58385417"
     inkscape:cx="995.96788"
     inkscape:cy="524.95985"
     inkscape:window-width="1920"
     inkscape:window-height="1009"
     inkscape:window-x="1912"
     inkscape:window-y="-8"
     inkscape:window-maximized="1"
     inkscape:current-layer="layer1" />
  <defs
     id="defs1">
    <symbol
       id="ms_g_clef">
      <title
         id="title2">G clef</title>
      <path
         d="m 6.561862,107.3479 c 0.2835,-3.2247 2.3293,-5.8548 5.208898,-6.6168 3.4821,-0.92097 6.2744,1.2529 7.4222,3.6533 0.9725,2.0326 0.9687,4.662 -0.1625,6.4066 -1.451,2.2356 -4.2652,3.4533 -6.4735,2.7375 -0.094,2.1521 3.2862,3.8339 6.4716,3.5875 4.4307,-0.3439 7.6573,-2.784 8.8886,-6.76 1.1369,-3.6722 0.5651,-7.5371 0.121,-10.42457 -0.2419,-1.5715 -0.8088,-6.0961 -1.3421,-8.8086 -5.6058,1.4339 -11.6666,0.2116 -16.869498,-3.6952 -5.0592,-3.7982 -8.6702,-9.9881 -9.5609998,-16.8484 -0.7797,-6.0051 0.1927,-10.7203 2.4547998,-14.9237 5.1258,-9.5233 12.628898,-15.1638 17.030798,-19.5157 -0.9441,-5.7192 -1.4365,-11.882 -0.8246,-16.8358 0.8129,-6.5809 3.7764,-15.352898 9.1513,-18.8351976 1.1939,-0.7738 2.3504,-0.6348 3.1532,0.7554996 2.5663,4.4446 4.0671,10.490398 4.5468,15.425398 0.6032,6.2072 -1.4004,13.6196 -3.7403,17.6713 -2.889,5.0033 -5.2051,7.9559 -8.8451,11.2628 0.2116,2.6264 0.9471,7.5521 1.4948,11.7645 9.9903,-0.5601 14.7961,6.5175 15.8577,13.0789 1.6554,10.2278 -5.3114,17.2317 -11.5415,19.8032 0.076,1.2922 0.7914,6.4165 1.1485,8.6129 1.0625,6.53087 1.1709,11.34217 -1.6584,15.52727 -2.262,3.3441 -5.5226,4.7981 -9.5731,4.947 -7.347,0.2721 -12.870298,-6.1606 -12.357098,-11.9697 z M 16.22496,72.91703 c -0.8414,4.1654 0.3552,6.6358 3.9284,9.0116 1.9963,1.3265 1.2287,2.7569 -1.7341,0.8283 -4.1684,-2.714 -6.3185,-7.4283 -6.0188,-12.2291 0.4021,-6.4419 5.4326,-11.1769 10.199,-12.7733 -0.4388,-3.4075 -0.8527,-6.8338 -1.3788,-10.4662 -4.0822,2.96 -8.1834,6.7464 -10.9553,10.2345 -3.750698,4.7195 -5.819598,9.5505 -5.771598,14.6151 0.087,9.2417 6.962898,15.0911 13.274298,16.7167 3.1155,0.8024 6.6368,0.6977 8.8055,-0.049 -0.531,-2.9874 -3.0803,-21.2045 -3.0803,-23.2261 -3.4775,1.0536 -6.6035,4.044 -7.2683,7.3367 z m 19.6304,1.703 c -1.4246,-6.0585 -5.6383,-8.9653 -10.1439,-9.2104 0.5855,4.1984 2.7005,20.3108 3.0724,22.789 5.3997,-2.7583 8.191,-8.8171 7.0715,-13.5786 z m -5.7328,-64.1784 c -4.2304,-0.705198 -7.7586,7.4307 -8.4676,12.209 -0.6286,4.2343 -0.567,7.8628 0.091,11.7712 4.25,-3.2479 8.1047,-7.6445 10.1691,-12.4117 1.3557,-3.1315 3.3781,-10.7064 -1.7937,-11.5684 z"
         inkscape:connector-curvature="0"
         id="path2" />
    </symbol>
    <symbol
       id="ms_sharp">
      <title
         id="title14">Sharp</title>
      <path
         inkscape:connector-curvature="0"
         d="M 11.5371,0 9.3619,0.2396 V 13.679 L 5.195,14.78403 V 1.90413 L 3.0199,2.14373 V 15.36065 L 0,16.16076 v 5.56007 L 3.0199,20.92072 V 32.79526 L 0,33.59537 v 5.55771 l 3.0199,-0.8002 v 12.4484 l 2.1751,-0.2397 v -12.7878 l 4.1669,-1.1049 v 12.2278 l 2.1752,-0.2397 v -12.5649 l 3.0372,-0.8049 v -5.55766 l -3.0372,0.80493 V 18.65991 l 3.0372,-0.80493 v -5.55766 l -3.0372,0.80493 z M 9.3619,19.23704 V 31.1093 L 5.195,32.2142 V 20.33966 Z"
         sodipodi:nodetypes="cccccccccccccccccccccccccccccccccc"
         id="path14" />
    </symbol>
    <symbol
       id="ms_note_8">
      <title
         id="title21">note 8</title>
      <path
         d="m 20.53754,0 v 55.93554 c -2.8167,-2.471 -8.28539,-2.82308 -13.119102,-0.7812 -5.930091,2.50502 -8.656324,7.66368 -6.8847995,11.85738 1.7715755,4.1938 7.3707085,5.8351 13.3008015,3.3301 5.65231,-2.3877 9.553,-7.6786 8.373,-11.80078 v -39.2031 c 3.022,0.4879 5.88511,2.09979 8.0489,4.3105 4.13061,4.22019 6.82721,10.6192 5.5527,17.7285 -0.91869,5.1245 -2.5568,8.3485 -4.2012,12.4219 l 1.1817,-0.125 c 2.3638,-5.3453 6.29175,-12.90789 5.2675,-20.8379 -0.94945,-7.35089 -6.07047,-12.46993 -9.4003,-16.627 -3.44427,-4.29993 -6.0235,-7.1097 -6.6582,-16.13277 z"
         inkscape:connector-curvature="0"
         sodipodi:nodetypes="ccsssccssccsscc"
         id="path21" />
    </symbol>
    <symbol
       id="ms_note_32">
      <title
         id="title23">note 32</title>
      <path
         d="m 20.53936,0.01355 v 72.62888 c -2.8161,-2.4727 -8.2842,-2.82562 -13.119105,-0.7832 -5.9301,2.50508 -8.6584,7.66357 -6.8868,11.85737 1.7715,4.1937 7.3708,5.8332 13.300805,3.3282 5.6496,-2.3866 9.5495,-7.6717 8.375,-11.79297 v -30.918 c 2.5916,1.88264 6.0351,3.96096 8.5606,5.86717 3.5089,2.64849 5.8753,5.05641 6.8398,9.2637 0.8452,3.68721 0.039,9.5856 -2.496,15.0586 l 0.9902,0.012 c 2.1844,-4.7682 3.5812,-7.9004 3.2129,-14.5215 -0.118,-2.1218 -0.7304,-4.1605 -1.6778,-6.123 1.3428,-5.01294 1.4122,-9.23592 -0.3515,-13.77737 2.9072,-9.71205 1.4995,-16.27514 -8.1563,-27.21485 C 26.96466,10.44404 22.20926,8.13879 22.20926,0 Z m 1.6699,13.50192 c 2.882,1.84636 6.795,4.67426 8.8867,7.18555 3.8396,4.60966 6.7395,7.83399 5.3341,17.4707 -1.5282,-3.10089 -3.89,-6.41133 -7.2989,-10.27344 -2.1665,-2.45453 -6.9219,-4.75979 -6.9219,-12.89843 z m 0.033,15.02149 c 2.879,1.84672 6.7692,4.66168 8.8535,7.16406 3.6723,4.40882 6.4812,7.55831 5.4903,16.25388 -2.0771,-3.43059 -5.0868,-6.61862 -8.1797,-9.59372 -2.2473,-2.16171 -5.8279,-6.96768 -6.1641,-13.82422 z"
         inkscape:connector-curvature="0"
         sodipodi:nodetypes="ccsssccssccsccscccscssccscsc"
         id="path23" />
    </symbol>
    <symbol
       id="ms_beamed_notes_32c">
      <title
         id="title70">Beamed notes 32C</title>
      <path
         d="m 57.20718,0 -36.668,17.5 v 56.0098 c -2.816,-2.4727 -8.2841,-2.8276 -13.119101,-0.7852 -5.93,2.505 -8.6581,7.6637 -6.8867005,11.8575 1.7715005,4.1938 7.3706005,5.835 13.3007015,3.33 5.6496,-2.3865 9.5495,-7.6716 8.375,-11.7929 V 36.5469 l 33.3282,-16.8242 v 36.2851 c -2.8166,-2.471 -8.2854,-2.8251 -13.1192,-0.7832 -5.9301,2.505 -8.6562,7.6638 -6.8847,11.8575 1.7714,4.1938 7.3706,5.835 13.3007,3.33 5.6519,-2.3876 9.553,-7.6766 8.3731,-11.7988 z m -1.6699,5.8848 v 2.9531 l -33.3282,16.8242 v -2.2773 z m 0,6.8379 v 3.1152 l -33.3282,16.8242 v -3.1152 z"
         inkscape:connector-curvature="0"
         id="path70" />
    </symbol>
    <symbol
       id="ms_note_2">
      <title
         id="title19">note 2</title>
      <path
         d="m 20.53923,0 v 55.94144 c -1.6288,-1.43132 -4.1425,-2.16132 -6.9121,-2.11522 -2.0181,0.034 -4.168603,0.4651 -6.207003,1.32612 -5.9301,2.5051 -8.6582,7.6636 -6.8867,11.8574 1.7716,4.1941 7.3707,5.8349 13.300703,3.3301 5.6504,-2.3867 9.5508,-7.6734 8.375,-11.7949 V 0.43554 Z m -4.0703,56.94924 c 1.5823,0 2.7223,0.4236 3.2324,1.1895 1.2483,1.8741 -1.5143,5.2958 -6.1699,7.6406 -4.655603,2.3448 -9.441303,2.7254 -10.689503,0.8515 -1.2484,-1.8742 1.5143,-5.2941 6.17,-7.6386 2.572503,-1.2956 5.317703,-2.0463 7.457003,-2.043 z"
         inkscape:connector-curvature="0"
         sodipodi:nodetypes="ccsssscccssssss"
         id="path19" />
    </symbol>
    <symbol
       id="ms_beamed_notes_8cr">
      <title
         id="title61">Beamed notes 8Cr</title>
      <path
         d="M 63.93782,9.912608e-4 C 62.25582,0.0229913 60.43582,0.3997913 58.58282,1.182591 c -5.6523,2.3877 -9.5533,7.6766 -8.3734,11.798899 v 52.7285 l -48.330105,17.5 v -50.1231 c 2.8166,2.4711 8.285305,2.8251 13.119105,0.7832 5.93,-2.5051 8.6562,-7.6636 6.8848,-11.8574 -1.7715,-4.1937 -7.3707,-5.8351 -13.300805,-3.3301 -5.6491,2.3865 -9.5474998,7.6716 -8.3729998,11.793 v 58.6191 l 51.6699048,-17.5 v -56.0078 c 2.8167,2.4711 8.2855,2.8251 13.1195,0.7832 5.93,-2.505 8.656,-7.663699 6.884,-11.857399 -1.217,-2.8832 -4.245,-4.5593997 -7.945,-4.5116997392 z"
         inkscape:connector-curvature="0"
         id="path61" />
    </symbol>
    <symbol
       id="ms_beamed_notes_16cr">
      <title
         id="title67">Beamed notes 16Cr</title>
      <path
         d="M 56.43751,9.912608e-4 C 54.75571,0.0229913 52.93521,0.3997913 51.08211,1.182591 c -5.6521,2.3876 -9.5526,7.6768 -8.3731,11.798899 v 46.5058 L 1.878907,76.43259 v -43.3476 c 2.8161,2.4727 8.284203,2.8275 13.119203,0.7851 5.93,-2.505 8.6581,-7.6637 6.8867,-11.8574 -1.7715,-4.1938 -7.3708,-5.8351 -13.300803,-3.3301 -5.6519,2.3877 -9.5528003,7.6766 -8.3730003,11.7989 v 58.6132 l 44.1679033,-17.5 v -56.0078 c 2.8167,2.4711 8.2854,2.8251 13.1192,0.7832 5.93,-2.505 8.6562,-7.663699 6.8848,-11.857399 -1.218,-2.8832 -4.2453,-4.5593997 -7.9454,-4.5116997392 z M 42.70901,63.37209 v 2.3379 l -40.830103,17.5 v -2.8926 z"
         inkscape:connector-curvature="0"
         id="path67" />
    </symbol>
    <symbol
       id="ms_beamed_notes_32cr">
      <title
         id="title73">Beamed notes 32Cr</title>
      <path
         d="M 48.93953,9.912608e-4 C 47.25773,0.0229913 45.43533,0.3997913 43.58213,1.182591 c -5.6495,2.3865 -9.5475,7.6717 -8.373,11.792999 v 39.5722 L 1.880931,69.37209 v -36.2852 c 2.8166,2.471 8.285399,2.8233 13.119199,0.7813 5.9301,-2.5049 8.6562,-7.6618 6.8847,-11.8555 -1.7714,-4.1938 -7.3706,-5.8351 -13.300699,-3.3301 -5.6519,2.3877 -9.5530003,7.6767 -8.3731003,11.7988 v 58.6133 l 36.6679993,-17.5 v -56.0097 c 2.816,2.4727 8.2841,2.8275 13.1191,0.7851 5.93,-2.505 8.6581,-7.663699 6.8867,-11.857399 -1.2179,-2.8832 -4.2453,-4.5593997 -7.9453,-4.5116997392 z M 35.20913,56.43259 v 3.1152 L 1.880931,76.37209 v -3.1153 z m 0,7 v 2.2774 l -33.328199,17.5 v -2.9532 z"
         inkscape:connector-curvature="0"
         id="path73" />
    </symbol>
    <symbol
       id="ms_rest_16">
      <title
         id="title35">rest 16</title>
      <path
         d="M 10.3734,8.761565e-8 C 7.2942,-5.399124e-4 4.7974,2.49512 4.7969,5.57439 c -5e-4,3.08002 2.4967,5.53594 5.5765,5.57655 3.5071,0.0451 7.0698,-1.38442 9.3173,-3.2751 -0.4261,2.84595 -2.3343,10.22951 -3.9995,15.24027 -1.5945,0.82659 -3.3842,1.56553 -4.7204,1.50011 0.1173,-0.45019 0.1802,-0.91306 0.1802,-1.3783 0,-3.07861 -2.496,-5.57386 -5.5745,-5.57461 C 2.4972,17.66288 6.000751e-4,20.15844 7.507097e-8,23.23792 -4.999249e-4,26.31816 2.4967,28.77397 5.5765,28.81458 c 3.3889,0.0451 6.9614,-1.29473 9.227,-3.09034 -2.4346,7.08406 -8.3857,22.23232 -9.418,24.6341 -0.441,1.02553 3.4986,1.14273 3.7931,0.24771 L 24.8621,2.9436 C 25.0218,2.45814 24.7187,1.96211 24.0795,2.68977 23.0514,3.8602 21.9944,4.63974 21.3668,4.99132 19.5961,5.98323 17.3524,7.03045 15.7672,6.9529 15.8846,6.50282 15.9474,6.03973 15.9474,5.57461 15.9474,2.49608 13.4515,7.500876e-4 10.373,2.100876e-4 Z"
         inkscape:connector-curvature="0"
         sodipodi:nodetypes="csscccsssscssssscssc"
         id="path35" />
    </symbol>
    <symbol
       id="ms_note_8r">
      <title
         id="title26">note 8r</title>
      <path
         d="m 8.582844,1.182627 c -5.8237,2.46 -9.7871,8.0016 -8.2500003,12.171803 v 58.16989 l 1.4609003,-0.076 c 0.6347,-9.0231 3.214,-11.83289 6.6582,-16.13279 3.329796,-4.1571 8.450896,-9.2761 9.400396,-16.627 1.0243,-7.93 -2.9057,-15.4926 -5.2695,-20.8379 l -1.1797,-0.125 c 1.6443,4.0734 3.2824,7.2974 4.2012,12.4219 1.2745,7.1093 -1.4222,13.5083 -5.5528,17.7285 -2.163696,2.2107 -5.026796,3.8226 -8.048796,4.3106 v -36.4981 c 2.8499,2.378 8.229896,2.695 12.996096,0.6817 5.9301,-2.505 8.6563,-7.663803 6.8847,-11.857503 -1.2179,-2.8832 -4.2453,-4.5593398 -7.9453,-4.5117398026 C 12.25644,0.0225872 10.43594,0.3998072 8.582844,1.182627 Z"
         inkscape:connector-curvature="0"
         sodipodi:nodetypes="scccssccssccssss"
         id="path26" />
    </symbol>
    <symbol
       id="ms_note_4">
      <title
         id="title20">note 4</title>
      <path
         d="m 20.53757,0 v 55.93552 c -2.8168,-2.4709 -8.2854,-2.82315 -13.119201,-0.7812 -5.93,2.50505 -8.6563,7.66359 -6.8846997,11.85738 1.7714997,4.1937 7.3705997,5.8351 13.3008007,3.3301 5.6522,-2.3875 9.5529,-7.67858 8.373,-11.80078 V 0.43555 Z"
         inkscape:connector-curvature="0"
         sodipodi:nodetypes="ccsssccc"
         id="path20" />
    </symbol>
    <symbol
       id="ms_note_2r">
      <title
         id="title24">note 2r</title>
      <path
         d="M 13.94155,9.83001e-4 C 12.25975,0.022583 10.43715,0.399813 8.58405,1.182623 2.93175,3.570253 -0.9688498,8.861213 0.2110502,12.9834 V 71.08889 L 1.88095,71.52439 V 15.58302 c 1.6289,1.431 4.1428,2.1612 6.9121,2.1152 2.0181,-0.033 4.1686,-0.467 6.2071,-1.3281 5.93,-2.505 8.6562,-7.661637 6.8847,-11.855467 -1.218,-2.88342 -4.2434,-4.56119 -7.9433,-4.513669999 z M 16.87515,3.719723 c 1.2696,0.0838 2.2351,0.46917 2.7031,1.17188 1.2484,1.87426 -1.5142,5.296077 -6.1699,7.640617 -2.5726,1.2956 -5.3197,2.0443 -7.459,2.041 -1.5823,0 -2.7204,-0.4236 -3.2305,-1.1894 -1.2484,-1.87418 1.5143,-5.293907 6.1699,-7.638697 2.9098,-1.46551 5.8703,-2.16507 7.9864,-2.0254 z"
         inkscape:connector-curvature="0"
         sodipodi:nodetypes="ssccccsssssssssss"
         id="path24" />
    </symbol>
    <symbol
       id="ms_note_32r">
      <title
         id="title28">note 32r</title>
      <path
         d="m 0,87.62001 1.6699,0.012 c 0,-8.1386 4.7554,-10.442 6.9219,-12.89651 9.6558,-10.93968 11.0635,-17.50475 8.1563,-27.21679 1.7634,-4.54121 1.6943,-8.76467 0.3515,-13.77735 0.9474,-1.96257 1.5598,-4.00127 1.6778,-6.12304 C 19.079,22.19593 18.1851,19.10726 16.6563,15.54996 21.4236,12.85222 23.4939,8.294142 21.8965,4.512852 20.6786,1.629702 17.6512,-0.0464881 13.9513,9.818545e-4 12.2697,0.0225819 10.4492,0.4015919 8.596,1.184422 3.6248,3.284352 0.0074,7.628572 0.007,11.45005 Z M 1.6703,15.36606 c 2.7393,2.66405 8.3693,3.10359 13.3398,1.00391 0.2506,-0.10586 0.4875,-0.2228 0.7266,-0.33789 1.5872,4.56306 2.0299,9.10037 1.3339,12.13672 -0.9645,4.20729 -3.3309,6.61518 -6.8398,9.26367 -2.5255,1.90623 -5.9689,3.98259 -8.5605,5.86523 z m 14.375,20.31055 c 0.9912,8.69645 -1.8159,11.84686 -5.4883,16.25586 -2.0843,2.50239 -5.9745,5.31538 -8.8535,7.16211 0.3362,-6.8563 3.9167,-11.66255 6.164,-13.82422 3.0927,-2.97485 6.1006,-6.16345 8.1778,-9.59375 z M 15.891,49.45981 C 17.2966,59.0968 14.3965,62.3228 10.557,66.9325 8.4652,69.4439 4.5522,72.2697 1.6703,74.1161 v -1.4844 c 0,-8.1386 4.7553,-10.44199 6.9218,-12.8965 3.4095,-3.86276 5.7708,-7.17404 7.2989,-10.27539 z"
         inkscape:connector-curvature="0"
         sodipodi:nodetypes="ccsccscssssccscsscccscsccscssc"
         id="path28" />
    </symbol>
    <symbol
       id="ms_beamed_notes_8ar">
      <title
         id="title59">Beamed notes 8Ar</title>
      <path
         d="m 13.93979,0.001605 c -1.6818,0.022 -3.5042,0.3989 -5.357403,1.1817 -5.6491,2.3865 -9.5473997,7.6716 -8.3729997,11.792905 v 58.6192 H 51.87929 v -56.0078 c 2.8166,2.471 8.2853,2.8251 13.1191,0.7832 5.93,-2.5051 8.6562,-7.663605 6.8848,-11.857405 -1.7715,-4.1937 -7.3708,-5.8351 -13.3008,-3.3301 -5.6523,2.3876 -9.5529,7.6766 -8.373,11.798805 v 52.7285 H 1.879287 v -50.125 c 2.816,2.4727 8.284103,2.8276 13.119103,0.7852 5.93,-2.5051 8.6582,-7.663605 6.8868,-11.857405 -1.2179,-2.8832 -4.2453,-4.5594 -7.9454,-4.5118 z"
         inkscape:connector-curvature="0"
         id="path59" />
    </symbol>
    <symbol
       id="ms_flat">
      <title
         id="title13">Flat</title>
      <path
         sodipodi:nodetypes="ccsscsssccccs"
         inkscape:connector-curvature="0"
         d="M 2.0953,38.71643 V 28.19384 c 0.2105,-1.00754 1.769,-2.84398 2.851,-2.91407 2.4343,-0.15691 3.6493,2.88268 2.5364,5.99006 -0.8693,2.42708 -3.5106,5.58538 -5.3874,7.4466 z m 7.772,-4.84453 c 0.9701,-0.92719 3.0031,-3.44061 2.6375,-6.55128 -0.3761,-3.19969 -3.1534,-4.55195 -4.8871,-4.55195 -1.6603,0 -3.3634,0.79983 -5.5224,2.40315 V 0 L 0,0.23079 v 42.5688 c 4.1779,-3.83027 6.2686,-5.4861 9.8673,-8.92586 z"
         id="path13" />
    </symbol>
    <symbol
       id="ms_note_parts_d">
      <title
         id="title87">note parts D</title>
      <path
         d="M 0,0 V 59.4769 H 1.6696 V 19.3367 c 3.022,0.488 5.8843,2.0999 8.0481,4.3105 4.1306,4.2202 6.8282,10.6201 5.5537,17.7293 -0.9187,5.1246 -2.5568,8.3489 -4.2012,12.4221 l 1.1805,-0.1247 C 14.6145,48.3285 18.5435,40.7657 17.5192,32.8356 16.5698,25.4848 11.4478,20.3651 8.118,16.208 4.6737,11.9081 2.0947,9.0999 1.46,0.0768 Z"
         inkscape:connector-curvature="0"
         sodipodi:nodetypes="ccccssccsscc"
         id="path87" />
    </symbol>
    <symbol
       id="ms_rest_8">
      <title
         id="title34">rest 8</title>
      <path
         sodipodi:nodetypes="sscsssssscsss"
         inkscape:connector-curvature="0"
         d="m 2e-4,5.81586 c -5e-4,3.21323 2.6048,5.77537 5.8178,5.81773 3.6589,0.0471 7.3755,-1.44429 9.7201,-3.41674 -1.1447,7.64718 -5.9436,20.69543 -7.9209,25.29558 -0.4601,1.06988 3.9207,0.89405 4.1213,-0.0684 C 12.9528,27.61857 17.1242,11.79436 18.7512,8.2558 19.4315,6.77621 20.4525,3.94266 20.9335,3.07068 21.191,2.60382 20.784,2.04686 20.1171,2.80587 19.0444,4.02693 17.9417,4.84018 17.287,5.20697 15.4397,6.24178 13.0989,7.3343 11.4453,7.25339 11.5677,6.78383 11.6333,6.30072 11.6333,5.81548 11.6333,2.60382 9.0294,5.600903e-4 5.8177,9.031955e-8 2.6053,-5.599097e-4 6e-4,2.60304 0,5.81548 Z"
         id="path34" />
    </symbol>
    <symbol
       id="ms_rest_32">
      <title
         id="title36">rest 32</title>
      <path
         d="M 31.3672,2.98366 C 31.6174,2.5299 31.2217,1.9888 30.5737,2.72645 29.5314,3.91295 28.4599,4.70308 27.8237,5.05949 26.0287,6.06501 23.754,7.12673 22.147,7.04811 22.266,6.59184 22.3298,6.1224 22.3298,5.65089 22.3298,2.53033 19.8001,7.600143e-4 16.6796,1.434791e-8 h -6e-4 C 13.5577,-2.199857e-4 11.027,2.52957 11.0265,5.65089 c 0,3.12231 2.531,5.61194 5.6531,5.6531 3.5552,0.0457 7.167,-1.40342 9.4453,-3.32005 -0.4043,2.70121 -2.9471,10.41023 -4.4938,15.12924 -1.6015,0.82497 -3.4023,1.54999 -4.7402,1.48454 0.119,-0.45626 0.1827,-0.9257 0.1827,-1.39721 0,-3.12078 -2.5301,-5.65038 -5.6509,-5.65092 l 4e-4,-2.2e-4 c -3.1215,-5.4e-4 -5.6525,2.52938 -5.6531,5.65092 -5e-4,3.1223 2.531,5.61194 5.6531,5.6531 3.5553,0.0457 7.1668,-1.40342 9.4451,-3.32006 -0.4319,2.88503 -3.2736,10.7141 -4.9617,15.79366 -1.6163,0.83793 -3.4306,1.58701 -4.7852,1.52069 0.1189,-0.45637 0.1827,-0.92559 0.1827,-1.39721 0,-3.12089 -2.5303,-5.65037 -5.651,-5.65114 C 2.5314,35.7989 5.001066e-4,38.32871 1.066341e-7,41.45047 -5.998934e-4,44.57299 2.5309,47.06252 5.653,47.10368 c 3.4354,0.0457 7.057,-1.3125 9.3537,-3.13276 -2.4681,7.18131 -7.3275,21.54883 -8.3741,23.98358 -0.447,1.03955 3.6503,1.18615 3.8453,0.25108 1.1798,-5.66069 20.422,-64.37473 20.8893,-65.22192 z"
         inkscape:connector-curvature="0"
         sodipodi:nodetypes="ccccscccccccsccsccccscsccccc"
         id="path36" />
    </symbol>
    <symbol
       id="ms_beamed_notes_8b">
      <title
         id="title57">Beamed notes 8B</title>
      <path
         d="m 20.53752,0 v 56.0078 c -2.8166,-2.4711 -8.2853,-2.8251 -13.1191,-0.7832 -5.93,2.505 -8.6563,7.6637 -6.8848,11.8574 1.7714,4.1938 7.3707,5.8351 13.3008,3.3301 5.6496,-2.3865 9.5477,-7.6736 8.3731,-11.7949 V 5.8848 l 48.33,8.5 v 50.125 c -2.8159,-2.4728 -8.2842,-2.8277 -13.1191,-0.7852 -5.9301,2.505 -8.6582,7.6636 -6.8867,11.8574 1.7714,4.1937 7.3707,5.835 13.3008,3.3301 5.6518,-2.3878 9.5529,-7.6786 8.373,-11.8008 V 8.5 Z"
         inkscape:connector-curvature="0"
         id="path57" />
    </symbol>
  </defs>
  <g
     inkscape:label="Ebene 1"
     inkscape:groupmode="layer"
     id="layer1">
    <path
       style="fill:none;stroke:#fcd592;stroke-width:1.234;stroke-opacity:1"
       d="m 1.7127565,697.09189 c 0,0 661.6908835,-390.12554 763.8893935,-244.92418 93.00272,132.13619 -183.77259,172.6731 -111.90885,367.29578 77.03416,208.62531 448.8146,120.68325 522.9704,83.15917 C 1427.7753,775.55597 1591.1508,540 1920,650.84746"
       id="path1"
       sodipodi:nodetypes="csssc" />
    <path
       d="m 0,735.4844 c 0,0 661.69088,-390.12554 763.88939,-244.92418 93.00272,132.13619 -183.77259,172.6731 -111.90885,367.29578 77.03416,208.6253 448.81456,120.68325 522.97036,83.15917 251.1116,-127.06669 414.4871,-362.62266 743.3363,-251.7752"
       style="fill:none;stroke:#fcd592;stroke-width:1.234;stroke-opacity:1"
       id="path1-1" />
    <path
       d="m -2.2000703e-5,773.16504 c 0,0 661.690882000703,-390.12554 763.889392000703,-244.92418 93.00272,132.13619 -183.77259,172.6731 -111.90885,367.29578 77.03416,208.62526 448.81458,120.68326 522.97038,83.15917 251.1116,-127.06669 414.4871,-362.62266 743.3363,-251.7752"
       style="fill:none;stroke:#fcd592;stroke-width:1.234;stroke-opacity:1"
       id="path1-4" />
    <path
       d="m 1.7127562,660.12311 c 0,0 661.6908838,-390.12554 763.8893938,-244.92418 93.00272,132.13619 -183.77259,172.6731 -111.90885,367.29578 77.03416,208.62531 448.8146,120.68325 522.9704,83.15917 C 1427.7753,738.58719 1591.1508,503.03122 1920,613.87868"
       style="fill:none;stroke:#fcd592;stroke-width:1.234;stroke-opacity:1"
       id="path1-0" />
    <path
       d="m 1.7127561,619.01696 c 0,0 661.6908839,-390.12554 763.8893939,-244.92418 93.00272,132.13619 -183.77259,172.6731 -111.90885,367.29578 77.03416,208.62531 448.8146,120.68325 522.9704,83.15917 C 1427.7753,697.48104 1591.1508,461.92507 1920,572.77253"
       style="fill:none;stroke:#fcd592;stroke-width:1.234;fill-opacity:1;stroke-opacity:1"
       id="path1-6" />
    <use
       xlink:href="#ms_g_clef"
       id="use1"
       transform="matrix(2.1576446,-1.3206711,1.3206711,2.1576446,-17.95341,534.76883)"
       style="stroke:#fcebc8;stroke-opacity:1;fill:#fcebc8;fill-opacity:1" />
    <use
       xlink:href="#ms_sharp"
       id="use1-6"
       transform="matrix(2.3685727,-1.7479048,1.7479048,2.3685727,149.32531,477.72273)"
       style="stroke:#fcebc8;stroke-opacity:1;fill:#fcebc8;fill-opacity:1" />
    <use
       xlink:href="#ms_note_8"
       id="use1-2"
       transform="matrix(2.0822507,-0.66413711,0.66413711,2.0822507,293.09946,511.62663)"
       style="stroke:#fcebc8;stroke-opacity:1;fill:#fcebc8;fill-opacity:1" />
    <use
       xlink:href="#ms_note_32"
       id="use1-0"
       transform="matrix(1.7053683,0,0,1.7053683,441.0437,421.94409)"
       style="stroke:#fcebc8;stroke-opacity:1;fill:#fcebc8;fill-opacity:1" />
    <use
       xlink:href="#ms_beamed_notes_32c"
       id="use1-5"
       transform="matrix(1.6743772,1.2121025,-1.2121025,1.6743772,345.2573,276.40427)"
       style="stroke:#fcebc8;stroke-opacity:1;fill:#fcebc8;fill-opacity:1" />
    <use
       xlink:href="#ms_note_2"
       id="use1-3"
       transform="matrix(1.6276974,-1.2125794,1.2125794,1.6276974,395.75898,177.18529)"
       style="stroke:#fcebc8;stroke-opacity:1;fill:#fcebc8;fill-opacity:1" />
    <use
       xlink:href="#ms_beamed_notes_8cr"
       id="use1-9"
       transform="matrix(1.82363,0,0,1.82363,640.33044,206.27049)"
       style="stroke:#fcebc8;stroke-opacity:1;fill:#fcebc8;fill-opacity:1" />
    <use
       xlink:href="#ms_beamed_notes_16cr"
       id="use1-8"
       transform="matrix(1.4549849,0,0,1.4549849,1144.2263,766.77319)"
       style="stroke:#fcebc8;stroke-opacity:1;fill:#fcebc8;fill-opacity:1" />
    <use
       xlink:href="#ms_beamed_notes_32cr"
       id="use1-65"
       transform="matrix(0.7764582,0,0,0.7764582,1800.5148,651.98047)"
       style="stroke:#fcebc8;stroke-opacity:1;fill:#fcebc8;fill-opacity:1" />
    <use
       xlink:href="#ms_rest_16"
       id="use1-32"
       transform="matrix(3.404941,0,0,3.404941,538.10328,621.9816)"
       style="stroke:#fcebc8;stroke-opacity:1;fill:#fcebc8;fill-opacity:1" />
    <use
       xlink:href="#ms_note_8"
       id="use1-87"
       transform="matrix(1.639846,-0.6214577,0.6214577,1.639846,949.09867,942.47412)"
       style="stroke:#fcebc8;stroke-opacity:1;fill:#fcebc8;fill-opacity:1" />
    <use
       xlink:href="#ms_note_8r"
       id="use1-7"
       transform="matrix(-2.141783,-0.99425644,0.99425644,-2.141783,692.3572,1027.2161)"
       style="stroke:#fcebc8;stroke-opacity:1;fill:#fcebc8;fill-opacity:1" />
    <use
       xlink:href="#ms_note_32"
       id="use1-75"
       transform="matrix(0.88447036,0.5106492,-0.5106492,0.88447036,1709.6353,672.08744)"
       style="stroke:#fcebc8;stroke-opacity:1;fill:#fcebc8;fill-opacity:1" />
    <use
       xlink:href="#ms_note_8"
       id="use1-03"
       transform="rotate(-30,1942.1499,-2983.547)"
       style="stroke:#fcebc8;stroke-opacity:1;fill:#fcebc8;fill-opacity:1" />
    <use
       xlink:href="#ms_note_4"
       id="use1-94"
       transform="rotate(15,-1043.8063,7364.3666)"
       style="stroke:#fcebc8;stroke-opacity:1;fill:#fcebc8;fill-opacity:1" />
    <use
       xlink:href="#ms_note_2r"
       id="use1-55"
       transform="matrix(1.1192062,0,0,1.1192062,1679.2814,595.46495)"
       style="stroke:#fcebc8;stroke-opacity:1;fill:#fcebc8;fill-opacity:1" />
    <use
       xlink:href="#ms_note_32r"
       id="use1-70"
       transform="matrix(0.88760009,0.51245615,-0.51245615,0.88760009,1650.1277,529.85676)"
       style="stroke:#fcebc8;stroke-opacity:1;fill:#fcebc8;fill-opacity:1" />
    <use
       xlink:href="#ms_beamed_notes_8ar"
       id="use1-79"
       transform="matrix(1.0254874,0,0,1.0254874,1532.6766,719.73802)"
       style="stroke:#fcebc8;stroke-opacity:1;fill:#fcebc8;fill-opacity:1" />
    <use
       xlink:href="#ms_flat"
       id="use1-54"
       transform="matrix(2.3205959,0,0,2.3205959,1518.1169,580.84748)"
       style="stroke:#fcebc8;stroke-opacity:1;fill:#fcebc8;fill-opacity:1" />
    <use
       xlink:href="#ms_rest_8"
       id="use1-20"
       transform="matrix(2.7959733,0,0,2.7959733,1375.8833,708.57673)"
       style="stroke:#fcebc8;stroke-opacity:1;fill:#fcebc8;fill-opacity:1" />
    <use
       xlink:href="#ms_rest_16"
       id="use1-71"
       transform="matrix(2.9064486,0,0,2.9064486,836.5762,832.48654)"
       style="stroke:#fcebc8;stroke-opacity:1;fill:#fcebc8;fill-opacity:1" />
    <use
       xlink:href="#ms_rest_32"
       id="use1-84"
       transform="matrix(1.2822077,-0.85660989,0.85660989,1.2822077,1293.7631,846.79933)"
       style="stroke:#fcebc8;stroke-opacity:1;fill:#fcebc8;fill-opacity:1" />
    <use
       xlink:href="#ms_beamed_notes_8b"
       id="use1-542"
       transform="matrix(1.7165951,0,0,1.7165951,688.00463,686.56962)"
       style="stroke:#fcebc8;stroke-opacity:1;fill:#fcebc8;fill-opacity:1" />
    <use
       xlink:href="#ms_note_4"
       id="use1-39"
       transform="matrix(2.0647282,-0.95344543,0.95344543,2.0647282,686.15218,480.04208)"
       style="stroke:#fcebc8;stroke-opacity:1;fill:#fcebc8;fill-opacity:1" />
  </g>
</svg>
