<?xml version="1.0" encoding="UTF-8" standalone="no"?>
<!-- Created with Inkscape (http://www.inkscape.org/) -->

<svg
   width="1920"
   height="1080"
   viewBox="0 0 1920 1080"
   version="1.1"
   id="svg1"
   inkscape:export-filename="background.svg"
   inkscape:export-xdpi="96"
   inkscape:export-ydpi="96"
   sodipodi:docname="background.svg"
   inkscape:version="1.3.2 (091e20e, 2023-11-25, custom)"
   xmlns:inkscape="http://www.inkscape.org/namespaces/inkscape"
   xmlns:sodipodi="http://sodipodi.sourceforge.net/DTD/sodipodi-0.dtd"
   xmlns:xlink="http://www.w3.org/1999/xlink"
   xmlns="http://www.w3.org/2000/svg"
   xmlns:svg="http://www.w3.org/2000/svg">
  <sodipodi:namedview
     id="namedview1"
     pagecolor="#ffffff"
     bordercolor="#000000"
     borderopacity="0.25"
     inkscape:showpageshadow="2"
     inkscape:pageopacity="0.0"
     inkscape:pagecheckerboard="0"
     inkscape:deskcolor="#d1d1d1"
     inkscape:document-units="px"
     inkscape:zoom="0.58385417"
     inkscape:cx="959.99999"
     inkscape:cy="540.37466"
     inkscape:window-width="1920"
     inkscape:window-height="1009"
     inkscape:window-x="1912"
     inkscape:window-y="-8"
     inkscape:window-maximized="1"
     inkscape:current-layer="layer1" />
  <defs
     id="defs1">
    <symbol
       id="ms_beamed_notes_8br">
      <title
         id="title60">Beamed notes 8Br</title>
      <path
         d="M 13.93994,9.872201e-4 C 12.25814,0.0229872 10.43564,0.3997872 8.582543,1.182587 c -5.6492,2.3866 -9.5477,7.6717 -8.3731,11.793003 v 58.6191 l 51.669897,8.5 v -56.0078 c 2.8166,2.4711 8.2834,2.8251 13.1172,0.7832 5.93,-2.5051 8.6582,-7.6636 6.8867,-11.8574 -1.7714,-4.193703 -7.3706,-5.835103 -13.3007,-3.330103 -5.6523,2.387703 -9.553,7.676603 -8.3731,11.798903 v 52.7285 l -48.330097,-8.5 v -50.1231 c 2.8166,2.4711 8.285397,2.8251 13.119197,0.7832 5.9301,-2.505 8.6562,-7.663703 6.8847,-11.857403 -1.2178,-2.8832 -4.2433,-4.5592998 -7.9433,-4.5116997799 z"
         inkscape:connector-curvature="0"
         id="path60" />
    </symbol>
    <symbol
       id="ms_beamed_notes_8c">
      <title
         id="title58">Beamed notes 8C</title>
      <path
         d="m 72.20723,0 -51.6699,17.50004 v 56.0058 c -2.8166,-2.471 -8.2835,-2.8232 -13.117203,-0.7812 -5.9301,2.505 -8.6582,7.6616 -6.8867,11.8554 1.7714,4.1937 7.3707,5.835 13.300803,3.3301 5.6522,-2.3877 9.5529,-7.6767 8.373,-11.7988 V 23.38284 L 70.53733,5.88281 v 50.12303 c -2.8166,-2.471 -8.2854,-2.8231 -13.1191,-0.7812 -5.9301,2.505 -8.6563,7.6617 -6.8848,11.8554 1.7714,4.1938 7.3707,5.8351 13.3008,3.3301 5.6491,-2.3865 9.5475,-7.6717 8.373,-11.793 z"
         inkscape:connector-curvature="0"
         id="path58" />
    </symbol>
    <symbol
       id="ms_beamed_notes_32c">
      <title
         id="title70">Beamed notes 32C</title>
      <path
         d="m 57.20718,0 -36.668,17.5 v 56.0098 c -2.816,-2.4727 -8.2841,-2.8276 -13.119101,-0.7852 -5.93,2.505 -8.6581,7.6637 -6.8867005,11.8575 1.7715005,4.1938 7.3706005,5.835 13.3007015,3.33 5.6496,-2.3865 9.5495,-7.6716 8.375,-11.7929 V 36.5469 l 33.3282,-16.8242 v 36.2851 c -2.8166,-2.471 -8.2854,-2.8251 -13.1192,-0.7832 -5.9301,2.505 -8.6562,7.6638 -6.8847,11.8575 1.7714,4.1938 7.3706,5.835 13.3007,3.33 5.6519,-2.3876 9.553,-7.6766 8.3731,-11.7988 z m -1.6699,5.8848 v 2.9531 l -33.3282,16.8242 v -2.2773 z m 0,6.8379 v 3.1152 l -33.3282,16.8242 v -3.1152 z"
         inkscape:connector-curvature="0"
         id="path70" />
    </symbol>
    <symbol
       id="ms_note_2r">
      <title
         id="title24">note 2r</title>
      <path
         d="M 13.94155,9.83001e-4 C 12.25975,0.022583 10.43715,0.399813 8.58405,1.182623 2.93175,3.570253 -0.9688498,8.861213 0.2110502,12.9834 V 71.08889 L 1.88095,71.52439 V 15.58302 c 1.6289,1.431 4.1428,2.1612 6.9121,2.1152 2.0181,-0.033 4.1686,-0.467 6.2071,-1.3281 5.93,-2.505 8.6562,-7.661637 6.8847,-11.855467 -1.218,-2.88342 -4.2434,-4.56119 -7.9433,-4.513669999 z M 16.87515,3.719723 c 1.2696,0.0838 2.2351,0.46917 2.7031,1.17188 1.2484,1.87426 -1.5142,5.296077 -6.1699,7.640617 -2.5726,1.2956 -5.3197,2.0443 -7.459,2.041 -1.5823,0 -2.7204,-0.4236 -3.2305,-1.1894 -1.2484,-1.87418 1.5143,-5.293907 6.1699,-7.638697 2.9098,-1.46551 5.8703,-2.16507 7.9864,-2.0254 z"
         inkscape:connector-curvature="0"
         sodipodi:nodetypes="ssccccsssssssssss"
         id="path24" />
    </symbol>
    <symbol
       id="ms_note_16r">
      <title
         id="title27">note 16r</title>
      <path
         d="M 8.596,1.184422 C 3.6248,3.284342 0.0154,7.628562 0.014,11.44721 L 0,72.61996 l 1.6699,0.012 c 0,-8.1386 4.7554,-10.442 6.9219,-12.8965 9.2474,-10.47697 10.9367,-16.9378 8.5097,-25.996 0.9468,-1.9619 1.5579,-3.9983 1.6758,-6.1192 0.3016,-5.4223 -0.5904,-8.5131 -2.1191,-12.0703 4.7666,-2.6977 6.8354,-7.256218 5.2383,-11.037098 C 20.6785,1.629602 17.6511,-0.0464881 13.9513,9.819108e-4 12.2697,0.0225819 10.4492,0.4016019 8.596,1.184422 Z M 1.6702,15.36606 c 2.7394,2.664 8.3713,3.10356 13.3418,1.0039 0.2501,-0.10564 0.486,-0.2231 0.7246,-0.3379 1.5873,4.5631 2.03,9.10039 1.334,12.1367 -0.9645,4.20729 -3.3308,6.61512 -6.8398,9.2637 -2.5255,1.90622 -5.969,3.9826 -8.5606,5.8652 z m 14.375,20.3105 c 0.9913,8.6965 -1.814,11.84694 -5.4863,16.2559 -2.0844,2.50244 -5.9764,5.3155 -8.8555,7.1621 0.3363,-6.8563 3.9168,-11.66055 6.1641,-13.8222 3.0926,-2.97485 6.1006,-6.1655 8.1777,-9.5958 z"
         inkscape:connector-curvature="0"
         sodipodi:nodetypes="ssccscscssscscsscccscsc"
         id="path27" />
    </symbol>
    <symbol
       id="ms_rest_32">
      <title
         id="title36">rest 32</title>
      <path
         d="M 31.3672,2.98366 C 31.6174,2.5299 31.2217,1.9888 30.5737,2.72645 29.5314,3.91295 28.4599,4.70308 27.8237,5.05949 26.0287,6.06501 23.754,7.12673 22.147,7.04811 22.266,6.59184 22.3298,6.1224 22.3298,5.65089 22.3298,2.53033 19.8001,7.600143e-4 16.6796,1.434791e-8 h -6e-4 C 13.5577,-2.199857e-4 11.027,2.52957 11.0265,5.65089 c 0,3.12231 2.531,5.61194 5.6531,5.6531 3.5552,0.0457 7.167,-1.40342 9.4453,-3.32005 -0.4043,2.70121 -2.9471,10.41023 -4.4938,15.12924 -1.6015,0.82497 -3.4023,1.54999 -4.7402,1.48454 0.119,-0.45626 0.1827,-0.9257 0.1827,-1.39721 0,-3.12078 -2.5301,-5.65038 -5.6509,-5.65092 l 4e-4,-2.2e-4 c -3.1215,-5.4e-4 -5.6525,2.52938 -5.6531,5.65092 -5e-4,3.1223 2.531,5.61194 5.6531,5.6531 3.5553,0.0457 7.1668,-1.40342 9.4451,-3.32006 -0.4319,2.88503 -3.2736,10.7141 -4.9617,15.79366 -1.6163,0.83793 -3.4306,1.58701 -4.7852,1.52069 0.1189,-0.45637 0.1827,-0.92559 0.1827,-1.39721 0,-3.12089 -2.5303,-5.65037 -5.651,-5.65114 C 2.5314,35.7989 5.001066e-4,38.32871 1.066341e-7,41.45047 -5.998934e-4,44.57299 2.5309,47.06252 5.653,47.10368 c 3.4354,0.0457 7.057,-1.3125 9.3537,-3.13276 -2.4681,7.18131 -7.3275,21.54883 -8.3741,23.98358 -0.447,1.03955 3.6503,1.18615 3.8453,0.25108 1.1798,-5.66069 20.422,-64.37473 20.8893,-65.22192 z"
         inkscape:connector-curvature="0"
         sodipodi:nodetypes="ccccscccccccsccsccccscsccccc"
         id="path36" />
    </symbol>
    <symbol
       id="ms_g_clef">
      <title
         id="title2">G clef</title>
      <path
         d="m 6.561862,107.3479 c 0.2835,-3.2247 2.3293,-5.8548 5.208898,-6.6168 3.4821,-0.92097 6.2744,1.2529 7.4222,3.6533 0.9725,2.0326 0.9687,4.662 -0.1625,6.4066 -1.451,2.2356 -4.2652,3.4533 -6.4735,2.7375 -0.094,2.1521 3.2862,3.8339 6.4716,3.5875 4.4307,-0.3439 7.6573,-2.784 8.8886,-6.76 1.1369,-3.6722 0.5651,-7.5371 0.121,-10.42457 -0.2419,-1.5715 -0.8088,-6.0961 -1.3421,-8.8086 -5.6058,1.4339 -11.6666,0.2116 -16.869498,-3.6952 -5.0592,-3.7982 -8.6702,-9.9881 -9.5609998,-16.8484 -0.7797,-6.0051 0.1927,-10.7203 2.4547998,-14.9237 5.1258,-9.5233 12.628898,-15.1638 17.030798,-19.5157 -0.9441,-5.7192 -1.4365,-11.882 -0.8246,-16.8358 0.8129,-6.5809 3.7764,-15.352898 9.1513,-18.8351976 1.1939,-0.7738 2.3504,-0.6348 3.1532,0.7554996 2.5663,4.4446 4.0671,10.490398 4.5468,15.425398 0.6032,6.2072 -1.4004,13.6196 -3.7403,17.6713 -2.889,5.0033 -5.2051,7.9559 -8.8451,11.2628 0.2116,2.6264 0.9471,7.5521 1.4948,11.7645 9.9903,-0.5601 14.7961,6.5175 15.8577,13.0789 1.6554,10.2278 -5.3114,17.2317 -11.5415,19.8032 0.076,1.2922 0.7914,6.4165 1.1485,8.6129 1.0625,6.53087 1.1709,11.34217 -1.6584,15.52727 -2.262,3.3441 -5.5226,4.7981 -9.5731,4.947 -7.347,0.2721 -12.870298,-6.1606 -12.357098,-11.9697 z M 16.22496,72.91703 c -0.8414,4.1654 0.3552,6.6358 3.9284,9.0116 1.9963,1.3265 1.2287,2.7569 -1.7341,0.8283 -4.1684,-2.714 -6.3185,-7.4283 -6.0188,-12.2291 0.4021,-6.4419 5.4326,-11.1769 10.199,-12.7733 -0.4388,-3.4075 -0.8527,-6.8338 -1.3788,-10.4662 -4.0822,2.96 -8.1834,6.7464 -10.9553,10.2345 -3.750698,4.7195 -5.819598,9.5505 -5.771598,14.6151 0.087,9.2417 6.962898,15.0911 13.274298,16.7167 3.1155,0.8024 6.6368,0.6977 8.8055,-0.049 -0.531,-2.9874 -3.0803,-21.2045 -3.0803,-23.2261 -3.4775,1.0536 -6.6035,4.044 -7.2683,7.3367 z m 19.6304,1.703 c -1.4246,-6.0585 -5.6383,-8.9653 -10.1439,-9.2104 0.5855,4.1984 2.7005,20.3108 3.0724,22.789 5.3997,-2.7583 8.191,-8.8171 7.0715,-13.5786 z m -5.7328,-64.1784 c -4.2304,-0.705198 -7.7586,7.4307 -8.4676,12.209 -0.6286,4.2343 -0.567,7.8628 0.091,11.7712 4.25,-3.2479 8.1047,-7.6445 10.1691,-12.4117 1.3557,-3.1315 3.3781,-10.7064 -1.7937,-11.5684 z"
         inkscape:connector-curvature="0"
         id="path2" />
    </symbol>
    <symbol
       id="ms_note_2">
      <title
         id="title19">note 2</title>
      <path
         d="m 20.53923,0 v 55.94144 c -1.6288,-1.43132 -4.1425,-2.16132 -6.9121,-2.11522 -2.0181,0.034 -4.168603,0.4651 -6.207003,1.32612 -5.9301,2.5051 -8.6582,7.6636 -6.8867,11.8574 1.7716,4.1941 7.3707,5.8349 13.300703,3.3301 5.6504,-2.3867 9.5508,-7.6734 8.375,-11.7949 V 0.43554 Z m -4.0703,56.94924 c 1.5823,0 2.7223,0.4236 3.2324,1.1895 1.2483,1.8741 -1.5143,5.2958 -6.1699,7.6406 -4.655603,2.3448 -9.441303,2.7254 -10.689503,0.8515 -1.2484,-1.8742 1.5143,-5.2941 6.17,-7.6386 2.572503,-1.2956 5.317703,-2.0463 7.457003,-2.043 z"
         inkscape:connector-curvature="0"
         sodipodi:nodetypes="ccsssscccssssss"
         id="path19" />
    </symbol>
    <symbol
       id="ms_note_8r">
      <title
         id="title26">note 8r</title>
      <path
         d="m 8.582844,1.182627 c -5.8237,2.46 -9.7871,8.0016 -8.2500003,12.171803 v 58.16989 l 1.4609003,-0.076 c 0.6347,-9.0231 3.214,-11.83289 6.6582,-16.13279 3.329796,-4.1571 8.450896,-9.2761 9.400396,-16.627 1.0243,-7.93 -2.9057,-15.4926 -5.2695,-20.8379 l -1.1797,-0.125 c 1.6443,4.0734 3.2824,7.2974 4.2012,12.4219 1.2745,7.1093 -1.4222,13.5083 -5.5528,17.7285 -2.163696,2.2107 -5.026796,3.8226 -8.048796,4.3106 v -36.4981 c 2.8499,2.378 8.229896,2.695 12.996096,0.6817 5.9301,-2.505 8.6563,-7.663803 6.8847,-11.857503 -1.2179,-2.8832 -4.2453,-4.5593398 -7.9453,-4.5117398026 C 12.25644,0.0225872 10.43594,0.3998072 8.582844,1.182627 Z"
         inkscape:connector-curvature="0"
         sodipodi:nodetypes="scccssccssccssss"
         id="path26" />
    </symbol>
    <symbol
       id="ms_note_32">
      <title
         id="title23">note 32</title>
      <path
         d="m 20.53936,0.01355 v 72.62888 c -2.8161,-2.4727 -8.2842,-2.82562 -13.119105,-0.7832 -5.9301,2.50508 -8.6584,7.66357 -6.8868,11.85737 1.7715,4.1937 7.3708,5.8332 13.300805,3.3282 5.6496,-2.3866 9.5495,-7.6717 8.375,-11.79297 v -30.918 c 2.5916,1.88264 6.0351,3.96096 8.5606,5.86717 3.5089,2.64849 5.8753,5.05641 6.8398,9.2637 0.8452,3.68721 0.039,9.5856 -2.496,15.0586 l 0.9902,0.012 c 2.1844,-4.7682 3.5812,-7.9004 3.2129,-14.5215 -0.118,-2.1218 -0.7304,-4.1605 -1.6778,-6.123 1.3428,-5.01294 1.4122,-9.23592 -0.3515,-13.77737 2.9072,-9.71205 1.4995,-16.27514 -8.1563,-27.21485 C 26.96466,10.44404 22.20926,8.13879 22.20926,0 Z m 1.6699,13.50192 c 2.882,1.84636 6.795,4.67426 8.8867,7.18555 3.8396,4.60966 6.7395,7.83399 5.3341,17.4707 -1.5282,-3.10089 -3.89,-6.41133 -7.2989,-10.27344 -2.1665,-2.45453 -6.9219,-4.75979 -6.9219,-12.89843 z m 0.033,15.02149 c 2.879,1.84672 6.7692,4.66168 8.8535,7.16406 3.6723,4.40882 6.4812,7.55831 5.4903,16.25388 -2.0771,-3.43059 -5.0868,-6.61862 -8.1797,-9.59372 -2.2473,-2.16171 -5.8279,-6.96768 -6.1641,-13.82422 z"
         inkscape:connector-curvature="0"
         sodipodi:nodetypes="ccsssccssccsccscccscssccscsc"
         id="path23" />
    </symbol>
    <symbol
       id="ms_beamed_notes_8a">
      <title
         id="title56">Beamed notes 8A</title>
      <path
         d="m 20.53749,0 v 56.0078 c -2.8167,-2.4711 -8.2853,-2.8232 -13.119099,-0.7813 -5.9301,2.505 -8.6562,7.6618 -6.8847999,11.8555 1.7715999,4.1938 7.3706999,5.8351 13.3007989,3.3301 5.6523,-2.3877 9.5529,-7.6767 8.3731,-11.7989 V 5.8847 h 48.33 v 50.1231 c -2.8166,-2.4711 -8.2853,-2.8232 -13.1191,-0.7813 -5.9302,2.505 -8.6562,7.6618 -6.8848,11.8555 1.7715,4.1938 7.3707,5.8351 13.3008,3.3301 5.652,-2.3877 9.5529,-7.6767 8.3731,-11.7989 V 0 Z"
         inkscape:connector-curvature="0"
         id="path56" />
    </symbol>
    <symbol
       id="ms_rest_8">
      <title
         id="title34">rest 8</title>
      <path
         sodipodi:nodetypes="sscsssssscsss"
         inkscape:connector-curvature="0"
         d="m 2e-4,5.81586 c -5e-4,3.21323 2.6048,5.77537 5.8178,5.81773 3.6589,0.0471 7.3755,-1.44429 9.7201,-3.41674 -1.1447,7.64718 -5.9436,20.69543 -7.9209,25.29558 -0.4601,1.06988 3.9207,0.89405 4.1213,-0.0684 C 12.9528,27.61857 17.1242,11.79436 18.7512,8.2558 19.4315,6.77621 20.4525,3.94266 20.9335,3.07068 21.191,2.60382 20.784,2.04686 20.1171,2.80587 19.0444,4.02693 17.9417,4.84018 17.287,5.20697 15.4397,6.24178 13.0989,7.3343 11.4453,7.25339 11.5677,6.78383 11.6333,6.30072 11.6333,5.81548 11.6333,2.60382 9.0294,5.600903e-4 5.8177,9.031955e-8 2.6053,-5.599097e-4 6e-4,2.60304 0,5.81548 Z"
         id="path34" />
    </symbol>
  </defs>
  <g
     inkscape:label="Ebene 1"
     inkscape:groupmode="layer"
     id="layer1">
    <use
       xlink:href="#ms_beamed_notes_8br"
       id="use1"
       transform="matrix(1.0395715,0,0,1.0395715,71.695327,91.8349)"
       style="fill:#efe7be;fill-opacity:0.788235" />
    <use
       xlink:href="#ms_beamed_notes_32c"
       id="use1-7"
       transform="matrix(1.3939085,0,0,1.3939085,315.66709,175.09906)"
       style="fill:#eee7be;fill-opacity:1" />
    <use
       xlink:href="#ms_beamed_notes_8c"
       id="use1-6"
       transform="matrix(1.1965402,0,0,1.1965402,1770.7497,160.98407)"
       style="fill:#eee7be;fill-opacity:1" />
    <use
       xlink:href="#ms_note_16r"
       id="use1-1"
       transform="translate(1456.6179,200.87853)"
       style="fill:#eee7be;fill-opacity:1" />
    <use
       xlink:href="#ms_note_2r"
       id="use1-2"
       transform="matrix(1.4458875,0,0,1.4458875,1630.4315,340.34658)"
       style="fill:#eee7be;fill-opacity:1" />
    <use
       xlink:href="#ms_rest_32"
       id="use1-79"
       transform="translate(158.97964,374.93479)"
       style="fill:#efe7be;fill-opacity:0.788235" />
    <use
       xlink:href="#ms_g_clef"
       id="use1-21"
       transform="translate(575.6431,409.34879)"
       style="fill:#eee7be;fill-opacity:1" />
    <use
       xlink:href="#ms_note_2"
       id="use1-0"
       transform="translate(917.10456,184.3114)"
       style="fill:#eee7be;fill-opacity:1" />
    <use
       xlink:href="#ms_note_8r"
       id="use1-5"
       transform="translate(1357.2838,408.00064)"
       style="fill:#eee7be;fill-opacity:1" />
    <use
       xlink:href="#ms_note_32"
       id="use1-9"
       transform="translate(1526.7636,565.62702)"
       style="fill:#eee7be;fill-opacity:1" />
    <use
       xlink:href="#ms_beamed_notes_8a"
       id="use1-55"
       transform="matrix(0.69693935,0,0,0.69693935,1191.8372,150.98086)"
       style="fill:#eee7be;fill-opacity:1" />
    <use
       xlink:href="#ms_rest_8"
       id="use1-51"
       transform="translate(628.35237,202.95142)"
       style="fill:#eee7be;fill-opacity:1" />
  </g>
</svg>
