<?xml version="1.0" encoding="UTF-8" standalone="no"?>
<!-- Created with Inkscape (http://www.inkscape.org/) -->

<svg
   width="1943.9215"
   height="119.32594"
   viewBox="0 0 1943.9215 119.32594"
   version="1.1"
   id="svg1"
   inkscape:export-filename="barline.svg"
   inkscape:export-xdpi="96"
   inkscape:export-ydpi="96"
   inkscape:version="1.3.2 (091e20e, 2023-11-25, custom)"
   sodipodi:docname="barline.svg"
   xmlns:inkscape="http://www.inkscape.org/namespaces/inkscape"
   xmlns:sodipodi="http://sodipodi.sourceforge.net/DTD/sodipodi-0.dtd"
   xmlns:xlink="http://www.w3.org/1999/xlink"
   xmlns="http://www.w3.org/2000/svg"
   xmlns:svg="http://www.w3.org/2000/svg">
  <sodipodi:namedview
     id="namedview1"
     pagecolor="#ffffff"
     bordercolor="#000000"
     borderopacity="0.25"
     inkscape:showpageshadow="2"
     inkscape:pageopacity="0.0"
     inkscape:pagecheckerboard="0"
     inkscape:deskcolor="#d1d1d1"
     inkscape:document-units="px"
     inkscape:zoom="0.82569448"
     inkscape:cx="1006.4255"
     inkscape:cy="79.327162"
     inkscape:window-width="1920"
     inkscape:window-height="1009"
     inkscape:window-x="1912"
     inkscape:window-y="-8"
     inkscape:window-maximized="1"
     inkscape:current-layer="layer1" />
  <defs
     id="defs1">
    <rect
       x="345.97681"
       y="139.83318"
       width="1239.1793"
       height="88.536324"
       id="rect1" />
    <symbol
       id="ms_g_clef">
      <title
         id="title2">G clef</title>
      <path
         d="m 6.561862,107.3479 c 0.2835,-3.2247 2.3293,-5.8548 5.208898,-6.6168 3.4821,-0.92097 6.2744,1.2529 7.4222,3.6533 0.9725,2.0326 0.9687,4.662 -0.1625,6.4066 -1.451,2.2356 -4.2652,3.4533 -6.4735,2.7375 -0.094,2.1521 3.2862,3.8339 6.4716,3.5875 4.4307,-0.3439 7.6573,-2.784 8.8886,-6.76 1.1369,-3.6722 0.5651,-7.5371 0.121,-10.42457 -0.2419,-1.5715 -0.8088,-6.0961 -1.3421,-8.8086 -5.6058,1.4339 -11.6666,0.2116 -16.869498,-3.6952 -5.0592,-3.7982 -8.6702,-9.9881 -9.5609998,-16.8484 -0.7797,-6.0051 0.1927,-10.7203 2.4547998,-14.9237 5.1258,-9.5233 12.628898,-15.1638 17.030798,-19.5157 -0.9441,-5.7192 -1.4365,-11.882 -0.8246,-16.8358 0.8129,-6.5809 3.7764,-15.352898 9.1513,-18.8351976 1.1939,-0.7738 2.3504,-0.6348 3.1532,0.7554996 2.5663,4.4446 4.0671,10.490398 4.5468,15.425398 0.6032,6.2072 -1.4004,13.6196 -3.7403,17.6713 -2.889,5.0033 -5.2051,7.9559 -8.8451,11.2628 0.2116,2.6264 0.9471,7.5521 1.4948,11.7645 9.9903,-0.5601 14.7961,6.5175 15.8577,13.0789 1.6554,10.2278 -5.3114,17.2317 -11.5415,19.8032 0.076,1.2922 0.7914,6.4165 1.1485,8.6129 1.0625,6.53087 1.1709,11.34217 -1.6584,15.52727 -2.262,3.3441 -5.5226,4.7981 -9.5731,4.947 -7.347,0.2721 -12.870298,-6.1606 -12.357098,-11.9697 z M 16.22496,72.91703 c -0.8414,4.1654 0.3552,6.6358 3.9284,9.0116 1.9963,1.3265 1.2287,2.7569 -1.7341,0.8283 -4.1684,-2.714 -6.3185,-7.4283 -6.0188,-12.2291 0.4021,-6.4419 5.4326,-11.1769 10.199,-12.7733 -0.4388,-3.4075 -0.8527,-6.8338 -1.3788,-10.4662 -4.0822,2.96 -8.1834,6.7464 -10.9553,10.2345 -3.750698,4.7195 -5.819598,9.5505 -5.771598,14.6151 0.087,9.2417 6.962898,15.0911 13.274298,16.7167 3.1155,0.8024 6.6368,0.6977 8.8055,-0.049 -0.531,-2.9874 -3.0803,-21.2045 -3.0803,-23.2261 -3.4775,1.0536 -6.6035,4.044 -7.2683,7.3367 z m 19.6304,1.703 c -1.4246,-6.0585 -5.6383,-8.9653 -10.1439,-9.2104 0.5855,4.1984 2.7005,20.3108 3.0724,22.789 5.3997,-2.7583 8.191,-8.8171 7.0715,-13.5786 z m -5.7328,-64.1784 c -4.2304,-0.705198 -7.7586,7.4307 -8.4676,12.209 -0.6286,4.2343 -0.567,7.8628 0.091,11.7712 4.25,-3.2479 8.1047,-7.6445 10.1691,-12.4117 1.3557,-3.1315 3.3781,-10.7064 -1.7937,-11.5684 z"
         inkscape:connector-curvature="0"
         id="path2" />
    </symbol>
    <symbol
       id="ms_staff_with_bar_line">
      <title
         id="title41">Staff with bar line</title>
      <path
         d="M 323.9977,0 0,0.0113 V 1.6734 H 322.3355 V 17.6362 H 0 v 1.6621 H 322.3355 V 35.2611 H 0 v 1.6621 H 322.3355 V 52.8858 H 0 v 1.6623 H 322.3355 V 70.5108 H 0 v 1.66219 l 323.9977,-0.094 z"
         inkscape:connector-curvature="0"
         sodipodi:nodetypes="ccccccccccccccccccccc"
         id="path41" />
    </symbol>
  </defs>
  <g
     inkscape:label="Ebene 1"
     inkscape:groupmode="layer"
     id="layer1"
     transform="translate(20.952724,-117.60733)">
    <use
       xlink:href="#ms_g_clef"
       id="use1"
       transform="translate(3.7952194e-8,117.60733)"
       style="fill:#fbb43b;fill-opacity:1" />
    <use
       xlink:href="#ms_staff_with_bar_line"
       id="use1-5"
       transform="matrix(5.9813393,0,0,0.99984231,-17.962054,140.33311)"
       style="fill:#fbb43b;fill-opacity:1;stroke:#fbb43b;stroke-opacity:1" />
    <text
       xml:space="preserve"
       id="text1"
       style="font-style:normal;font-variant:normal;font-weight:normal;font-stretch:normal;font-size:74.6667px;font-family:Arial;-inkscape-font-specification:Arial;white-space:pre;shape-inside:url(#rect1);shape-padding:0;display:inline;fill:#000000;fill-opacity:1;stroke:#000000;stroke-width:1.234;stroke-opacity:1"
       transform="translate(6.0911597,-3.9341681)"><tspan
         x="345.97656"
         y="207.09035"
         id="tspan1">GESANGVEREIN 1848 NEUNHOF </tspan></text>
  </g>
</svg>
