<svg id="visual" viewBox="0 0 2000 1500" width="2000" height="1500" xmlns="http://www.w3.org/2000/svg" xmlns:xlink="http://www.w3.org/1999/xlink" version="1.1"><rect x="0" y="0" width="2000" height="1500" fill="#001220"></rect><path d="M0 846L23.8 832C47.7 818 95.3 790 143 776.7C190.7 763.3 238.3 764.7 286 742C333.7 719.3 381.3 672.7 428.8 675.2C476.3 677.7 523.7 729.3 571.2 715.5C618.7 701.7 666.3 622.3 714 613.7C761.7 605 809.3 667 857 672.2C904.7 677.3 952.3 625.7 1000 608.2C1047.7 590.7 1095.3 607.3 1143 645.3C1190.7 683.3 1238.3 742.7 1286 763.3C1333.7 784 1381.3 766 1428.8 757.8C1476.3 749.7 1523.7 751.3 1571.2 755.8C1618.7 760.3 1666.3 767.7 1714 747.3C1761.7 727 1809.3 679 1857 663.5C1904.7 648 1952.3 665 1976.2 673.5L2000 682L2000 1501L1976.2 1501C1952.3 1501 1904.7 1501 1857 1501C1809.3 1501 1761.7 1501 1714 1501C1666.3 1501 1618.7 1501 1571.2 1501C1523.7 1501 1476.3 1501 1428.8 1501C1381.3 1501 1333.7 1501 1286 1501C1238.3 1501 1190.7 1501 1143 1501C1095.3 1501 1047.7 1501 1000 1501C952.3 1501 904.7 1501 857 1501C809.3 1501 761.7 1501 714 1501C666.3 1501 618.7 1501 571.2 1501C523.7 1501 476.3 1501 428.8 1501C381.3 1501 333.7 1501 286 1501C238.3 1501 190.7 1501 143 1501C95.3 1501 47.7 1501 23.8 1501L0 1501Z" fill="#e1c699"></path><path d="M0 926L23.8 920.3C47.7 914.7 95.3 903.3 143 886.7C190.7 870 238.3 848 286 861.8C333.7 875.7 381.3 925.3 428.8 907.2C476.3 889 523.7 803 571.2 784.2C618.7 765.3 666.3 813.7 714 841.3C761.7 869 809.3 876 857 877.2C904.7 878.3 952.3 873.7 1000 865.3C1047.7 857 1095.3 845 1143 841.7C1190.7 838.3 1238.3 843.7 1286 848.8C1333.7 854 1381.3 859 1428.8 854.7C1476.3 850.3 1523.7 836.7 1571.2 833.8C1618.7 831 1666.3 839 1714 838.8C1761.7 838.7 1809.3 830.3 1857 835.5C1904.7 840.7 1952.3 859.3 1976.2 868.7L2000 878L2000 1501L1976.2 1501C1952.3 1501 1904.7 1501 1857 1501C1809.3 1501 1761.7 1501 1714 1501C1666.3 1501 1618.7 1501 1571.2 1501C1523.7 1501 1476.3 1501 1428.8 1501C1381.3 1501 1333.7 1501 1286 1501C1238.3 1501 1190.7 1501 1143 1501C1095.3 1501 1047.7 1501 1000 1501C952.3 1501 904.7 1501 857 1501C809.3 1501 761.7 1501 714 1501C666.3 1501 618.7 1501 571.2 1501C523.7 1501 476.3 1501 428.8 1501C381.3 1501 333.7 1501 286 1501C238.3 1501 190.7 1501 143 1501C95.3 1501 47.7 1501 23.8 1501L0 1501Z" fill="#cfb68d"></path><path d="M0 1004L23.8 1013C47.7 1022 95.3 1040 143 1040.7C190.7 1041.3 238.3 1024.7 286 1002.7C333.7 980.7 381.3 953.3 428.8 971.3C476.3 989.3 523.7 1052.7 571.2 1079.7C618.7 1106.7 666.3 1097.3 714 1083.2C761.7 1069 809.3 1050 857 1020.8C904.7 991.7 952.3 952.3 1000 927.2C1047.7 902 1095.3 891 1143 906C1190.7 921 1238.3 962 1286 986C1333.7 1010 1381.3 1017 1428.8 1024.3C1476.3 1031.7 1523.7 1039.3 1571.2 1032C1618.7 1024.7 1666.3 1002.3 1714 977.2C1761.7 952 1809.3 924 1857 931.5C1904.7 939 1952.3 982 1976.2 1003.5L2000 1025L2000 1501L1976.2 1501C1952.3 1501 1904.7 1501 1857 1501C1809.3 1501 1761.7 1501 1714 1501C1666.3 1501 1618.7 1501 1571.2 1501C1523.7 1501 1476.3 1501 1428.8 1501C1381.3 1501 1333.7 1501 1286 1501C1238.3 1501 1190.7 1501 1143 1501C1095.3 1501 1047.7 1501 1000 1501C952.3 1501 904.7 1501 857 1501C809.3 1501 761.7 1501 714 1501C666.3 1501 618.7 1501 571.2 1501C523.7 1501 476.3 1501 428.8 1501C381.3 1501 333.7 1501 286 1501C238.3 1501 190.7 1501 143 1501C95.3 1501 47.7 1501 23.8 1501L0 1501Z" fill="#bea782"></path><path d="M0 1153L23.8 1158C47.7 1163 95.3 1173 143 1182.2C190.7 1191.3 238.3 1199.7 286 1180.7C333.7 1161.7 381.3 1115.3 428.8 1117.5C476.3 1119.7 523.7 1170.3 571.2 1177.2C618.7 1184 666.3 1147 714 1120.8C761.7 1094.7 809.3 1079.3 857 1089.2C904.7 1099 952.3 1134 1000 1157.7C1047.7 1181.3 1095.3 1193.7 1143 1205.5C1190.7 1217.3 1238.3 1228.7 1286 1231.5C1333.7 1234.3 1381.3 1228.7 1428.8 1207.3C1476.3 1186 1523.7 1149 1571.2 1147.2C1618.7 1145.3 1666.3 1178.7 1714 1196.8C1761.7 1215 1809.3 1218 1857 1204.2C1904.7 1190.3 1952.3 1159.7 1976.2 1144.3L2000 1129L2000 1501L1976.2 1501C1952.3 1501 1904.7 1501 1857 1501C1809.3 1501 1761.7 1501 1714 1501C1666.3 1501 1618.7 1501 1571.2 1501C1523.7 1501 1476.3 1501 1428.8 1501C1381.3 1501 1333.7 1501 1286 1501C1238.3 1501 1190.7 1501 1143 1501C1095.3 1501 1047.7 1501 1000 1501C952.3 1501 904.7 1501 857 1501C809.3 1501 761.7 1501 714 1501C666.3 1501 618.7 1501 571.2 1501C523.7 1501 476.3 1501 428.8 1501C381.3 1501 333.7 1501 286 1501C238.3 1501 190.7 1501 143 1501C95.3 1501 47.7 1501 23.8 1501L0 1501Z" fill="#ad9876"></path><path d="M0 1298L23.8 1290C47.7 1282 95.3 1266 143 1255.8C190.7 1245.7 238.3 1241.3 286 1240.8C333.7 1240.3 381.3 1243.7 428.8 1254.7C476.3 1265.7 523.7 1284.3 571.2 1282.2C618.7 1280 666.3 1257 714 1263.5C761.7 1270 809.3 1306 857 1308C904.7 1310 952.3 1278 1000 1263.3C1047.7 1248.7 1095.3 1251.3 1143 1255.2C1190.7 1259 1238.3 1264 1286 1282.7C1333.7 1301.3 1381.3 1333.7 1428.8 1327.2C1476.3 1320.7 1523.7 1275.3 1571.2 1271.8C1618.7 1268.3 1666.3 1306.7 1714 1315.3C1761.7 1324 1809.3 1303 1857 1282.2C1904.7 1261.3 1952.3 1240.7 1976.2 1230.3L2000 1220L2000 1501L1976.2 1501C1952.3 1501 1904.7 1501 1857 1501C1809.3 1501 1761.7 1501 1714 1501C1666.3 1501 1618.7 1501 1571.2 1501C1523.7 1501 1476.3 1501 1428.8 1501C1381.3 1501 1333.7 1501 1286 1501C1238.3 1501 1190.7 1501 1143 1501C1095.3 1501 1047.7 1501 1000 1501C952.3 1501 904.7 1501 857 1501C809.3 1501 761.7 1501 714 1501C666.3 1501 618.7 1501 571.2 1501C523.7 1501 476.3 1501 428.8 1501C381.3 1501 333.7 1501 286 1501C238.3 1501 190.7 1501 143 1501C95.3 1501 47.7 1501 23.8 1501L0 1501Z" fill="#9d8a6b"></path></svg>