<?xml version="1.0" encoding="UTF-8" standalone="no"?>
<!-- Created with Inkscape (http://www.inkscape.org/) -->

<svg
   width="48.946995"
   height="109.32281"
   viewBox="0 0 48.946995 109.32281"
   version="1.1"
   id="svg1"
   inkscape:version="1.3.2 (091e20e, 2023-11-25, custom)"
   sodipodi:docname="note-vectors.svg"
   xml:space="preserve"
   xmlns:inkscape="http://www.inkscape.org/namespaces/inkscape"
   xmlns:sodipodi="http://sodipodi.sourceforge.net/DTD/sodipodi-0.dtd"
   xmlns:xlink="http://www.w3.org/1999/xlink"
   xmlns="http://www.w3.org/2000/svg"
   xmlns:svg="http://www.w3.org/2000/svg"><sodipodi:namedview
     id="namedview1"
     pagecolor="#ffffff"
     bordercolor="#000000"
     borderopacity="0.25"
     inkscape:showpageshadow="2"
     inkscape:pageopacity="0.0"
     inkscape:pagecheckerboard="0"
     inkscape:deskcolor="#d1d1d1"
     inkscape:document-units="px"
     inkscape:zoom="0.5296875"
     inkscape:cx="1278.1121"
     inkscape:cy="871.26844"
     inkscape:window-width="1920"
     inkscape:window-height="1009"
     inkscape:window-x="1912"
     inkscape:window-y="-8"
     inkscape:window-maximized="1"
     inkscape:current-layer="layer26" /><defs
     id="defs1"><linearGradient
       id="linearGradient189"
       inkscape:collect="always"><stop
         style="stop-color:#002cf2;stop-opacity:1;"
         offset="0"
         id="stop188" /><stop
         style="stop-color:#0503ff;stop-opacity:1;"
         offset="1"
         id="stop189" /></linearGradient><linearGradient
       id="swatch47"
       inkscape:swatch="solid"><stop
         style="stop-color:#0dffa2;stop-opacity:1;"
         offset="0"
         id="stop47" /></linearGradient><symbol
       id="ms_rest_16"><title
         id="title35">rest 16</title><path
         d="M 10.3734,8.761565e-8 C 7.2942,-5.399124e-4 4.7974,2.49512 4.7969,5.57439 c -5e-4,3.08002 2.4967,5.53594 5.5765,5.57655 3.5071,0.0451 7.0698,-1.38442 9.3173,-3.2751 -0.4261,2.84595 -2.3343,10.22951 -3.9995,15.24027 -1.5945,0.82659 -3.3842,1.56553 -4.7204,1.50011 0.1173,-0.45019 0.1802,-0.91306 0.1802,-1.3783 0,-3.07861 -2.496,-5.57386 -5.5745,-5.57461 C 2.4972,17.66288 6.000751e-4,20.15844 7.507097e-8,23.23792 -4.999249e-4,26.31816 2.4967,28.77397 5.5765,28.81458 c 3.3889,0.0451 6.9614,-1.29473 9.227,-3.09034 -2.4346,7.08406 -8.3857,22.23232 -9.418,24.6341 -0.441,1.02553 3.4986,1.14273 3.7931,0.24771 L 24.8621,2.9436 C 25.0218,2.45814 24.7187,1.96211 24.0795,2.68977 23.0514,3.8602 21.9944,4.63974 21.3668,4.99132 19.5961,5.98323 17.3524,7.03045 15.7672,6.9529 15.8846,6.50282 15.9474,6.03973 15.9474,5.57461 15.9474,2.49608 13.4515,7.500876e-4 10.373,2.100876e-4 Z"
         inkscape:connector-curvature="0"
         sodipodi:nodetypes="csscccsssscssssscssc"
         id="path35" /></symbol><linearGradient
       inkscape:collect="always"
       xlink:href="#linearGradient189"
       id="linearGradient188"
       x1="-7.1054274e-15"
       y1="25.604445"
       x2="24.904106"
       y2="25.604445"
       gradientUnits="userSpaceOnUse" /></defs><g
     inkscape:groupmode="layer"
     id="layer9"
     inkscape:label="Ebene 9"
     transform="translate(-1951.4085,-1116.1495)"><use
       xlink:href="#ms_rest_16"
       id="use1-87"
       transform="matrix(1.906123,-0.87751618,0.87751618,1.906123,1938.4475,1133.391)"
       style="display:inline;fill:url(#linearGradient188)" /></g></svg>
