<?xml version="1.0" encoding="UTF-8" standalone="no"?>
<!-- Created with Inkscape (http://www.inkscape.org/) -->

<svg
   width="102.004"
   height="139.99596"
   viewBox="0 0 102.004 139.99596"
   version="1.1"
   id="svg1"
   inkscape:version="1.3.2 (091e20e, 2023-11-25, custom)"
   sodipodi:docname="note-vectors.svg"
   xml:space="preserve"
   xmlns:inkscape="http://www.inkscape.org/namespaces/inkscape"
   xmlns:sodipodi="http://sodipodi.sourceforge.net/DTD/sodipodi-0.dtd"
   xmlns:xlink="http://www.w3.org/1999/xlink"
   xmlns="http://www.w3.org/2000/svg"
   xmlns:svg="http://www.w3.org/2000/svg"><sodipodi:namedview
     id="namedview1"
     pagecolor="#ffffff"
     bordercolor="#000000"
     borderopacity="0.25"
     inkscape:showpageshadow="2"
     inkscape:pageopacity="0.0"
     inkscape:pagecheckerboard="0"
     inkscape:deskcolor="#d1d1d1"
     inkscape:document-units="px"
     inkscape:zoom="0.5296875"
     inkscape:cx="1278.1121"
     inkscape:cy="871.26844"
     inkscape:window-width="1920"
     inkscape:window-height="1009"
     inkscape:window-x="1912"
     inkscape:window-y="-8"
     inkscape:window-maximized="1"
     inkscape:current-layer="layer26" /><defs
     id="defs1"><linearGradient
       id="linearGradient204"
       inkscape:collect="always"><stop
         style="stop-color:#c700f2;stop-opacity:1;"
         offset="0"
         id="stop203" /><stop
         style="stop-color:#e103ff;stop-opacity:1;"
         offset="1"
         id="stop204" /></linearGradient><linearGradient
       id="swatch47"
       inkscape:swatch="solid"><stop
         style="stop-color:#0dffa2;stop-opacity:1;"
         offset="0"
         id="stop47" /></linearGradient><symbol
       id="ms_beamed_notes_16c"><title
         id="title64">Beamed notes 16C</title><path
         d="m 64.70748,0 -44.17,17.5 v 56.0078 c -2.8166,-2.471 -8.2854,-2.8251 -13.119099,-0.7832 -5.93,2.5051 -8.6562,7.6636 -6.8847997,11.8574 1.7714997,4.1937 7.3707997,5.8351 13.3007987,3.3301 5.6523,-2.3876 9.5529,-7.6766 8.3731,-11.7988 V 29.6074 l 40.83,-16.9453 v 43.3477 c -2.816,-2.4728 -8.2842,-2.8256 -13.1191,-0.7832 -5.9301,2.505 -8.6582,7.6616 -6.8867,11.8554 1.7714,4.1937 7.3707,5.835 13.3008,3.3301 5.6491,-2.3865 9.5494,-7.6716 8.375,-11.7929 z m -1.67,5.8848 v 2.8926 l -40.83,16.9453 v -2.3379 z"
         inkscape:connector-curvature="0"
         id="path64" /></symbol><linearGradient
       inkscape:collect="always"
       xlink:href="#linearGradient204"
       id="linearGradient203"
       x1="-1.4591747e-07"
       y1="44.547703"
       x2="64.916786"
       y2="44.547703"
       gradientUnits="userSpaceOnUse" /></defs><g
     inkscape:groupmode="layer"
     id="layer3"
     inkscape:label="Ebene 3"
     transform="translate(-2341.3099,-1114.6263)"><use
       xlink:href="#ms_beamed_notes_16c"
       id="use1-35"
       transform="matrix(1.5713039,0,0,1.5713039,2341.3099,1114.6263)"
       style="display:inline;fill:url(#linearGradient203)" /></g></svg>
