<?xml version="1.0" encoding="UTF-8" standalone="no"?>
<!-- Created with Inkscape (http://www.inkscape.org/) -->

<svg
   width="57.418251"
   height="71.595451"
   viewBox="0 0 57.418251 71.595451"
   version="1.1"
   id="svg1"
   inkscape:version="1.3.2 (091e20e, 2023-11-25, custom)"
   sodipodi:docname="note-vectors.svg"
   xml:space="preserve"
   xmlns:inkscape="http://www.inkscape.org/namespaces/inkscape"
   xmlns:sodipodi="http://sodipodi.sourceforge.net/DTD/sodipodi-0.dtd"
   xmlns:xlink="http://www.w3.org/1999/xlink"
   xmlns="http://www.w3.org/2000/svg"
   xmlns:svg="http://www.w3.org/2000/svg"><sodipodi:namedview
     id="namedview1"
     pagecolor="#ffffff"
     bordercolor="#000000"
     borderopacity="0.25"
     inkscape:showpageshadow="2"
     inkscape:pageopacity="0.0"
     inkscape:pagecheckerboard="0"
     inkscape:deskcolor="#d1d1d1"
     inkscape:document-units="px"
     inkscape:zoom="0.5296875"
     inkscape:cx="1278.1121"
     inkscape:cy="871.26844"
     inkscape:window-width="1920"
     inkscape:window-height="1009"
     inkscape:window-x="1912"
     inkscape:window-y="-8"
     inkscape:window-maximized="1"
     inkscape:current-layer="layer26" /><defs
     id="defs1"><linearGradient
       id="linearGradient167"
       inkscape:collect="always"><stop
         style="stop-color:#19f200;stop-opacity:1;"
         offset="0"
         id="stop166" /><stop
         style="stop-color:#3eff03;stop-opacity:1;"
         offset="1"
         id="stop167" /></linearGradient><linearGradient
       id="swatch47"
       inkscape:swatch="solid"><stop
         style="stop-color:#0dffa2;stop-opacity:1;"
         offset="0"
         id="stop47" /></linearGradient><symbol
       id="ms_beamed_notes_32a"><title
         id="title68">Beamed notes 32A</title><path
         d="m 20.53922,0 v 56.0098 c -2.816,-2.4727 -8.2842,-2.8276 -13.119103,-0.7852 -5.93,2.505 -8.6582,7.6637 -6.8866998,11.8575 1.7713998,4.1938 7.3726998,5.835 13.3027028,3.33 5.6496,-2.3865 9.5475,-7.6716 8.373,-11.7929 V 19.3848 h 33.3282 v 36.623 c -2.8166,-2.471 -8.2853,-2.8251 -13.1192,-0.7832 -5.93,2.505 -8.6562,7.6637 -6.8847,11.8575 1.7714,4.1938 7.3706,5.835 13.3007,3.33 5.6519,-2.3876 9.553,-7.6766 8.3731,-11.7988 V 0 Z m 1.6699,5.8848 h 33.3282 V 8.5 h -33.3282 z m 0,6.5 h 33.3282 V 15.5 h -33.3282 z"
         inkscape:connector-curvature="0"
         id="path68" /></symbol><linearGradient
       inkscape:collect="always"
       xlink:href="#linearGradient167"
       id="linearGradient166"
       x1="-1.0890676e-07"
       y1="35.797726"
       x2="57.418251"
       y2="35.797726"
       gradientUnits="userSpaceOnUse" /></defs><g
     inkscape:groupmode="layer"
     id="layer7"
     inkscape:label="Ebene 7"
     transform="translate(-1028.5237,-946.93879)"><use
       xlink:href="#ms_beamed_notes_32a"
       id="use1-32"
       transform="translate(1028.5237,946.93879)"
       style="display:inline;fill:url(#linearGradient166)" /></g></svg>
