<?xml version="1.0" encoding="UTF-8" standalone="no"?>
<!-- Created with Inkscape (http://www.inkscape.org/) -->

<svg
   width="90.846146"
   height="113.27907"
   viewBox="0 0 90.846146 113.27907"
   version="1.1"
   id="svg1"
   inkscape:version="1.3.2 (091e20e, 2023-11-25, custom)"
   sodipodi:docname="note-vectors.svg"
   xml:space="preserve"
   xmlns:inkscape="http://www.inkscape.org/namespaces/inkscape"
   xmlns:sodipodi="http://sodipodi.sourceforge.net/DTD/sodipodi-0.dtd"
   xmlns:xlink="http://www.w3.org/1999/xlink"
   xmlns="http://www.w3.org/2000/svg"
   xmlns:svg="http://www.w3.org/2000/svg"><sodipodi:namedview
     id="namedview1"
     pagecolor="#ffffff"
     bordercolor="#000000"
     borderopacity="0.25"
     inkscape:showpageshadow="2"
     inkscape:pageopacity="0.0"
     inkscape:pagecheckerboard="0"
     inkscape:deskcolor="#d1d1d1"
     inkscape:document-units="px"
     inkscape:zoom="0.5296875"
     inkscape:cx="1278.1121"
     inkscape:cy="871.26844"
     inkscape:window-width="1920"
     inkscape:window-height="1009"
     inkscape:window-x="1912"
     inkscape:window-y="-8"
     inkscape:window-maximized="1"
     inkscape:current-layer="layer26" /><defs
     id="defs1"><linearGradient
       id="linearGradient158"
       inkscape:collect="always"><stop
         style="stop-color:#88f200;stop-opacity:1;"
         offset="0"
         id="stop157" /><stop
         style="stop-color:#8aff03;stop-opacity:1;"
         offset="1"
         id="stop158" /></linearGradient><linearGradient
       id="swatch47"
       inkscape:swatch="solid"><stop
         style="stop-color:#0dffa2;stop-opacity:1;"
         offset="0"
         id="stop47" /></linearGradient><symbol
       id="ms_beamed_notes_32ar"><title
         id="title71">Beamed notes 32Ar</title><path
         d="M 13.9395,9.860834e-4 C 12.2577,0.0229861 10.4372,0.4017861 8.584103,1.184586 c -5.6519,2.3877 -9.5529003,7.6767 -8.3731003,11.798804 v 58.6133 H 36.879 v -56.0097 c 2.816,2.4726 8.2842,2.8256 13.1191,0.7832 5.9301,-2.5049 8.6582,-7.661804 6.8867,-11.855504 -1.7714,-4.1937999 -7.3706,-5.8351 -13.3007,-3.3301 -5.6496,2.3865 -9.5495,7.6717 -8.375,11.793004 v 39.2344 H 1.880903 v -36.6231 c 2.8167,2.471 8.285397,2.8233 13.119197,0.7813 5.93,-2.5049 8.6562,-7.661804 6.8847,-11.855504 C 20.667,1.631486 17.6395,-0.0466139 13.9395,9.860834e-4 Z M 1.880903,56.09669 H 35.2091 v 3.1153 H 1.880903 Z m 0,7 H 35.2091 v 2.6153 H 1.880903 Z"
         inkscape:connector-curvature="0"
         id="path71" /></symbol><linearGradient
       inkscape:collect="always"
       xlink:href="#linearGradient158"
       id="linearGradient157"
       x1="9.0233954e-09"
       y1="35.798344"
       x2="57.418228"
       y2="35.798344"
       gradientUnits="userSpaceOnUse" /></defs><g
     inkscape:groupmode="layer"
     id="layer6"
     inkscape:label="Ebene 6"
     transform="translate(-766.95662,-1000.0565)"><use
       xlink:href="#ms_beamed_notes_32ar"
       id="use1-42"
       transform="matrix(1.582183,0,0,1.582183,766.95662,1000.0565)"
       style="display:inline;fill:url(#linearGradient157)" /></g></svg>
