<?xml version="1.0" encoding="UTF-8" standalone="no"?>
<!-- Created with Inkscape (http://www.inkscape.org/) -->

<svg
   width="2563.3584"
   height="636.26611"
   viewBox="0 0 2563.3584 636.26611"
   version="1.1"
   id="svg1"
   inkscape:version="1.3.2 (091e20e, 2023-11-25, custom)"
   sodipodi:docname="note-vectors.svg"
   xml:space="preserve"
   xmlns:inkscape="http://www.inkscape.org/namespaces/inkscape"
   xmlns:sodipodi="http://sodipodi.sourceforge.net/DTD/sodipodi-0.dtd"
   xmlns:xlink="http://www.w3.org/1999/xlink"
   xmlns="http://www.w3.org/2000/svg"
   xmlns:svg="http://www.w3.org/2000/svg"><sodipodi:namedview
     id="namedview1"
     pagecolor="#ffffff"
     bordercolor="#000000"
     borderopacity="0.25"
     inkscape:showpageshadow="2"
     inkscape:pageopacity="0.0"
     inkscape:pagecheckerboard="0"
     inkscape:deskcolor="#d1d1d1"
     inkscape:document-units="px"
     inkscape:zoom="1.059375"
     inkscape:cx="2348.5546"
     inkscape:cy="1119.056"
     inkscape:window-width="1920"
     inkscape:window-height="1009"
     inkscape:window-x="1912"
     inkscape:window-y="-8"
     inkscape:window-maximized="1"
     inkscape:current-layer="layer1" /><defs
     id="defs1"><linearGradient
       id="linearGradient130"
       inkscape:collect="always"><stop
         style="stop-color:#f20000;stop-opacity:1;"
         offset="0"
         id="stop130" /><stop
         style="stop-color:#f5bb00;stop-opacity:1;"
         offset="0.25"
         id="stop132" /><stop
         style="stop-color:#00dd05;stop-opacity:1;"
         offset="0.52350426"
         id="stop133" /><stop
         style="stop-color:#0005ea;stop-opacity:1;"
         offset="0.77884614"
         id="stop134" /><stop
         style="stop-color:#b400ef;stop-opacity:0.95886075;"
         offset="1"
         id="stop131" /></linearGradient><linearGradient
       id="swatch47"
       inkscape:swatch="solid"><stop
         style="stop-color:#0dffa2;stop-opacity:1;"
         offset="0"
         id="stop47" /></linearGradient><linearGradient
       inkscape:collect="always"
       xlink:href="#linearGradient130"
       id="linearGradient131"
       x1="-0.41079035"
       y1="1220.6888"
       x2="2561.5747"
       y2="1220.6888"
       gradientUnits="userSpaceOnUse" /><linearGradient
       inkscape:collect="always"
       xlink:href="#linearGradient130"
       id="linearGradient136"
       x1="-0.8927123"
       y1="1121.4713"
       x2="2561.4541"
       y2="1121.4713"
       gradientUnits="userSpaceOnUse" /><linearGradient
       inkscape:collect="always"
       xlink:href="#linearGradient130"
       id="linearGradient138"
       x1="-0.51412642"
       y1="1085.9092"
       x2="2562.656"
       y2="1085.9092"
       gradientUnits="userSpaceOnUse"
       gradientTransform="translate(-1.23,3.8617017)" /><linearGradient
       inkscape:collect="always"
       xlink:href="#linearGradient130"
       id="linearGradient140"
       x1="-0.32772765"
       y1="1064.5667"
       x2="2562.3584"
       y2="1064.5667"
       gradientUnits="userSpaceOnUse" /><linearGradient
       inkscape:collect="always"
       xlink:href="#linearGradient130"
       id="linearGradient142"
       x1="-0.26365745"
       y1="1039.3619"
       x2="2561.1807"
       y2="1039.3619"
       gradientUnits="userSpaceOnUse" /><linearGradient
       inkscape:collect="always"
       xlink:href="#linearGradient130"
       id="linearGradient144"
       x1="-0.17427053"
       y1="978.79468"
       x2="2561.23"
       y2="978.79468"
       gradientUnits="userSpaceOnUse" /></defs><g
     inkscape:label="Ebene 1"
     inkscape:groupmode="layer"
     id="layer1"
     style="display:inline"
     transform="translate(1.7441264,-804.02028)"><path
       style="fill:none;stroke:url(#linearGradient144);stroke-width:1.00157"
       d="m 0,947.72861 c 0,0 131.65257,-48.86887 296.58723,-61.81926 131.98682,-10.36338 285.2868,10.42186 409.48947,37.27649 160.44791,34.69144 351.7724,97.85716 604.4216,156.07146 187.3237,43.1623 380.7366,65.3615 492.4515,70.4773 140.1589,6.4183 337.6075,9.5675 471.3639,-49.4707 174.8758,-77.1877 286.4702,-296.01611 286.4702,-296.01611"
       id="path1"
       sodipodi:nodetypes="csssssc" /><path
       style="fill:none;stroke:url(#linearGradient142);stroke-width:1.00157"
       d="m 0,1011.5393 c 0,0 130.70899,-80.94352 294.87359,-101.46517 113.10776,-14.13921 287.17471,0.98227 411.37738,27.83697 160.44791,34.6914 359.32403,99.745 611.97323,157.9593 187.3237,43.1623 486.6901,76.6892 605.7259,78.0289 138.561,1.5595 274.9744,-8.3424 367.529,-41.919 191.2789,-69.3913 269.2679,-204.47546 269.2679,-204.47546"
       id="path1-9"
       sodipodi:nodetypes="csssssc"
       inkscape:label="path1-1" /><path
       style="fill:none;stroke:url(#linearGradient140);stroke-width:1.00157"
       d="m 0,1088.9046 c 0,0 137.11734,-118.67544 299.81924,-148.6629 107.44404,-19.80293 253.19241,-16.00885 403.82576,14.62166 160.8634,32.71074 359.324,99.74504 611.9732,157.95934 187.3237,43.1623 478.9263,80.0737 590.6226,85.5805 168.4775,8.3062 295.7415,-0.7908 433.6058,-49.4706 C 2531.7136,1081.1844 2560,1023.1093 2560,1023.1093"
       id="path1-9-2"
       sodipodi:nodetypes="csssssc"
       inkscape:label="path1-2" /><path
       style="fill:none;stroke:url(#linearGradient138);stroke-width:1.00157"
       d="m -1.4042705,1167.2608 c 0,0 188.5842405,-174.25197 351.2861405,-204.23947 107.44404,-19.8029 204.10686,-17.89672 354.74021,12.73378 160.8634,32.71079 359.32402,99.74509 611.97322,157.95939 187.3237,43.1623 467.5989,87.6253 579.2952,93.1321 168.4775,8.3062 356.1448,-7.5144 495.9067,-50.4433 51.1878,-15.7227 169.4328,-73.2146 169.4328,-73.2146"
       id="path1-9-2-0"
       sodipodi:nodetypes="csssssc"
       inkscape:label="path1-3" /><path
       style="fill:none;stroke:url(#linearGradient136);stroke-width:1.00157"
       d="m -0.51412643,1272.7823 c 0,0 215.60284643,-248.9997 376.98673643,-285.4195 96.11656,-21.6908 181.45203,-25.44832 332.08533,5.18218 160.8634,32.71082 359.32396,99.74512 611.97316,157.95942 187.3237,43.1623 467.5989,87.6253 579.2952,93.1321 168.4775,8.3062 328.1992,12.9362 472.3078,-11.7412 64.2432,-11.0011 126.7457,-27.4481 189.0466,-47.271"
       id="path1-9-2-0-6"
       sodipodi:nodetypes="csssssc"
       inkscape:label="path1-4" /><path
       style="fill:none;stroke:url(#linearGradient131);stroke-width:1.00157;stroke-opacity:1"
       d="m 0,1440 c 0,0 269.62744,-386.7049 431.01133,-423.1247 96.11656,-21.69077 179.56413,-21.67246 330.19743,8.9581 160.8634,32.7108 302.68674,82.7539 555.33594,140.9682 187.3237,43.1623 467.9666,82.5336 579.2952,93.1321 206.2356,19.6336 402.0252,16.2789 475.1397,15.0643 65.8831,-1.0944 156.8269,-11.1054 190.4744,-22.463"
       id="path1-9-2-0-6-6"
       sodipodi:nodetypes="csssssc"
       inkscape:label="path1-4" /></g></svg>
