<?xml version="1.0" encoding="UTF-8" standalone="no"?>
<!-- Created with Inkscape (http://www.inkscape.org/) -->

<svg
   width="28.640095"
   height="91.379013"
   viewBox="0 0 28.640095 91.379013"
   version="1.1"
   id="svg1"
   inkscape:version="1.3.2 (091e20e, 2023-11-25, custom)"
   sodipodi:docname="note-vectors.svg"
   xml:space="preserve"
   xmlns:inkscape="http://www.inkscape.org/namespaces/inkscape"
   xmlns:sodipodi="http://sodipodi.sourceforge.net/DTD/sodipodi-0.dtd"
   xmlns:xlink="http://www.w3.org/1999/xlink"
   xmlns="http://www.w3.org/2000/svg"
   xmlns:svg="http://www.w3.org/2000/svg"><sodipodi:namedview
     id="namedview1"
     pagecolor="#ffffff"
     bordercolor="#000000"
     borderopacity="0.25"
     inkscape:showpageshadow="2"
     inkscape:pageopacity="0.0"
     inkscape:pagecheckerboard="0"
     inkscape:deskcolor="#d1d1d1"
     inkscape:document-units="px"
     inkscape:zoom="0.5296875"
     inkscape:cx="1278.1121"
     inkscape:cy="871.26844"
     inkscape:window-width="1920"
     inkscape:window-height="1009"
     inkscape:window-x="1912"
     inkscape:window-y="-8"
     inkscape:window-maximized="1"
     inkscape:current-layer="layer26" /><defs
     id="defs1"><linearGradient
       id="linearGradient183"
       inkscape:collect="always"><stop
         style="stop-color:#0064f2;stop-opacity:1;"
         offset="0"
         id="stop182" /><stop
         style="stop-color:#0344ff;stop-opacity:1;"
         offset="1"
         id="stop183" /></linearGradient><linearGradient
       id="swatch47"
       inkscape:swatch="solid"><stop
         style="stop-color:#0dffa2;stop-opacity:1;"
         offset="0"
         id="stop47" /></linearGradient><symbol
       id="ms_note_8r"><title
         id="title26">note 8r</title><path
         d="m 8.582844,1.182627 c -5.8237,2.46 -9.7871,8.0016 -8.2500003,12.171803 v 58.16989 l 1.4609003,-0.076 c 0.6347,-9.0231 3.214,-11.83289 6.6582,-16.13279 3.329796,-4.1571 8.450896,-9.2761 9.400396,-16.627 1.0243,-7.93 -2.9057,-15.4926 -5.2695,-20.8379 l -1.1797,-0.125 c 1.6443,4.0734 3.2824,7.2974 4.2012,12.4219 1.2745,7.1093 -1.4222,13.5083 -5.5528,17.7285 -2.163696,2.2107 -5.026796,3.8226 -8.048796,4.3106 v -36.4981 c 2.8499,2.378 8.229896,2.695 12.996096,0.6817 5.9301,-2.505 8.6563,-7.663803 6.8847,-11.857503 -1.2179,-2.8832 -4.2453,-4.5593398 -7.9453,-4.5117398026 C 12.25644,0.0225872 10.43594,0.3998072 8.582844,1.182627 Z"
         inkscape:connector-curvature="0"
         sodipodi:nodetypes="scccssccssccssss"
         id="path26" /></symbol><linearGradient
       inkscape:collect="always"
       xlink:href="#linearGradient183"
       id="linearGradient182"
       x1="1.5807515e-07"
       y1="35.762161"
       x2="22.417219"
       y2="35.762161"
       gradientUnits="userSpaceOnUse" /></defs><g
     inkscape:groupmode="layer"
     id="layer25"
     inkscape:label="Ebene 25"
     transform="translate(-1687.9064,-1100.1771)"><use
       xlink:href="#ms_note_8r"
       id="use1-7"
       transform="matrix(1.2775936,0,0,1.2775936,1687.9064,1100.1771)"
       style="display:inline;fill:url(#linearGradient182)" /></g></svg>
