<?xml version="1.0" encoding="UTF-8" standalone="no"?>
<!-- Created with Inkscape (http://www.inkscape.org/) -->

<svg
   width="64.469849"
   height="140.80916"
   viewBox="0 0 64.469849 140.80916"
   version="1.1"
   id="svg1"
   inkscape:version="1.3.2 (091e20e, 2023-11-25, custom)"
   sodipodi:docname="note-vectors.svg"
   xml:space="preserve"
   xmlns:inkscape="http://www.inkscape.org/namespaces/inkscape"
   xmlns:sodipodi="http://sodipodi.sourceforge.net/DTD/sodipodi-0.dtd"
   xmlns:xlink="http://www.w3.org/1999/xlink"
   xmlns="http://www.w3.org/2000/svg"
   xmlns:svg="http://www.w3.org/2000/svg"><sodipodi:namedview
     id="namedview1"
     pagecolor="#ffffff"
     bordercolor="#000000"
     borderopacity="0.25"
     inkscape:showpageshadow="2"
     inkscape:pageopacity="0.0"
     inkscape:pagecheckerboard="0"
     inkscape:deskcolor="#d1d1d1"
     inkscape:document-units="px"
     inkscape:zoom="0.5296875"
     inkscape:cx="1278.1121"
     inkscape:cy="871.26844"
     inkscape:window-width="1920"
     inkscape:window-height="1009"
     inkscape:window-x="1912"
     inkscape:window-y="-8"
     inkscape:window-maximized="1"
     inkscape:current-layer="layer26" /><defs
     id="defs1"><linearGradient
       id="linearGradient195"
       inkscape:collect="always"><stop
         style="stop-color:#5400f2;stop-opacity:1;"
         offset="0"
         id="stop194" /><stop
         style="stop-color:#7303ff;stop-opacity:1;"
         offset="1"
         id="stop195" /></linearGradient><linearGradient
       id="swatch47"
       inkscape:swatch="solid"><stop
         style="stop-color:#0dffa2;stop-opacity:1;"
         offset="0"
         id="stop47" /></linearGradient><symbol
       id="ms_note_16"><title
         id="title22">note 16</title><path
         d="m 22.20743,0 -1.6699,0.014 v 57.6269 c -2.8167,-2.471 -8.2853,-2.8231 -13.1191,-0.7812 -5.9301,2.505 -8.6563,7.66372 -6.8848002,11.85742 1.7716002,4.1938 7.3707002,5.8351 13.3008002,3.3301 5.6523,-2.3877 9.5529,-7.6787 8.373,-11.80082 V 29.3343 c 2.5917,1.8826 6.0351,3.96098 8.5606,5.8672 3.509,2.64858 5.8753,5.05631 6.8398,9.2636 0.8452,3.68721 0.039,9.5855 -2.4961,15.0586 l 0.9903,0.012 c 2.1845,-4.7683 3.5811,-7.9002 3.2129,-14.5214 -0.118,-2.121 -0.7291,-4.1593 -1.6758,-6.1211 2.4269,-9.0583 0.7377,-15.51722 -8.5098,-25.9942 -2.1665,-2.45452 -6.9219,-4.7598 -6.9219,-12.8984 z m 0.033,13.5371 c 2.8791,1.8467 6.7711,4.66169 8.8555,7.1641 3.6722,4.40869 6.4792,7.5582 5.4883,16.2539 -2.0772,-3.4307 -5.0868,-6.6187 -8.1797,-9.5938 -2.2473,-2.1617 -5.8279,-6.9676 -6.1641,-13.8242 z"
         inkscape:connector-curvature="0"
         sodipodi:nodetypes="cccsssccssccscssccscsc"
         id="path22" /></symbol><linearGradient
       inkscape:collect="always"
       xlink:href="#linearGradient195"
       id="linearGradient194"
       x1="9.043675e-08"
       y1="36.615273"
       x2="39.373707"
       y2="36.615273"
       gradientUnits="userSpaceOnUse" /></defs><g
     inkscape:groupmode="layer"
     id="layer10"
     inkscape:label="Ebene 10"
     transform="translate(-2136.1173,-1049.5767)"><use
       xlink:href="#ms_note_16"
       id="use1-0-2"
       transform="matrix(1.8207057,-0.48785659,0.48785659,1.8207057,2104.3457,1060.4107)"
       style="display:inline;fill:url(#linearGradient194)" /></g></svg>
