<?xml version="1.0" encoding="UTF-8" standalone="no"?>
<!-- Created with Inkscape (http://www.inkscape.org/) -->

<svg
   width="37.316231"
   height="60.815201"
   viewBox="0 0 37.316231 60.815201"
   version="1.1"
   id="svg1"
   inkscape:version="1.3.2 (091e20e, 2023-11-25, custom)"
   sodipodi:docname="note-vectors.svg"
   xml:space="preserve"
   xmlns:inkscape="http://www.inkscape.org/namespaces/inkscape"
   xmlns:sodipodi="http://sodipodi.sourceforge.net/DTD/sodipodi-0.dtd"
   xmlns:xlink="http://www.w3.org/1999/xlink"
   xmlns="http://www.w3.org/2000/svg"
   xmlns:svg="http://www.w3.org/2000/svg"><sodipodi:namedview
     id="namedview1"
     pagecolor="#ffffff"
     bordercolor="#000000"
     borderopacity="0.25"
     inkscape:showpageshadow="2"
     inkscape:pageopacity="0.0"
     inkscape:pagecheckerboard="0"
     inkscape:deskcolor="#d1d1d1"
     inkscape:document-units="px"
     inkscape:zoom="0.5296875"
     inkscape:cx="1278.1121"
     inkscape:cy="871.26844"
     inkscape:window-width="1920"
     inkscape:window-height="1009"
     inkscape:window-x="1912"
     inkscape:window-y="-8"
     inkscape:window-maximized="1"
     inkscape:current-layer="layer26" /><defs
     id="defs1"><linearGradient
       id="linearGradient172"
       inkscape:collect="always"><stop
         style="stop-color:#00f264;stop-opacity:1;"
         offset="0"
         id="stop171" /><stop
         style="stop-color:#03ffa4;stop-opacity:1;"
         offset="1"
         id="stop172" /></linearGradient><linearGradient
       id="swatch47"
       inkscape:swatch="solid"><stop
         style="stop-color:#0dffa2;stop-opacity:1;"
         offset="0"
         id="stop47" /></linearGradient><symbol
       id="ms_rest_8"><title
         id="title34">rest 8</title><path
         sodipodi:nodetypes="sscsssssscsss"
         inkscape:connector-curvature="0"
         d="m 2e-4,5.81586 c -5e-4,3.21323 2.6048,5.77537 5.8178,5.81773 3.6589,0.0471 7.3755,-1.44429 9.7201,-3.41674 -1.1447,7.64718 -5.9436,20.69543 -7.9209,25.29558 -0.4601,1.06988 3.9207,0.89405 4.1213,-0.0684 C 12.9528,27.61857 17.1242,11.79436 18.7512,8.2558 19.4315,6.77621 20.4525,3.94266 20.9335,3.07068 21.191,2.60382 20.784,2.04686 20.1171,2.80587 19.0444,4.02693 17.9417,4.84018 17.287,5.20697 15.4397,6.24178 13.0989,7.3343 11.4453,7.25339 11.5677,6.78383 11.6333,6.30072 11.6333,5.81548 11.6333,2.60382 9.0294,5.600903e-4 5.8177,9.031955e-8 2.6053,-5.599097e-4 6e-4,2.60304 0,5.81548 Z"
         id="path34" /></symbol><linearGradient
       inkscape:collect="always"
       xlink:href="#linearGradient172"
       id="linearGradient171"
       x1="0"
       y1="17.121546"
       x2="21.011578"
       y2="17.121546"
       gradientUnits="userSpaceOnUse" /></defs><g
     inkscape:groupmode="layer"
     id="layer22"
     inkscape:label="Ebene 22"
     transform="translate(-1286.0429,-1054.4651)"><use
       xlink:href="#ms_rest_8"
       id="use1-6-5"
       transform="matrix(1.7759844,0,0,1.7759844,1286.0429,1054.4651)"
       style="display:inline;fill:url(#linearGradient171)" /></g></svg>
