<?xml version="1.0" encoding="UTF-8" standalone="no"?>
<!-- Created with Inkscape (http://www.inkscape.org/) -->

<svg
   width="50.975723"
   height="85.116798"
   viewBox="0 0 50.975723 85.116798"
   version="1.1"
   id="svg1"
   inkscape:version="1.3.2 (091e20e, 2023-11-25, custom)"
   sodipodi:docname="note-vectors.svg"
   xml:space="preserve"
   xmlns:inkscape="http://www.inkscape.org/namespaces/inkscape"
   xmlns:sodipodi="http://sodipodi.sourceforge.net/DTD/sodipodi-0.dtd"
   xmlns:xlink="http://www.w3.org/1999/xlink"
   xmlns="http://www.w3.org/2000/svg"
   xmlns:svg="http://www.w3.org/2000/svg"><sodipodi:namedview
     id="namedview1"
     pagecolor="#ffffff"
     bordercolor="#000000"
     borderopacity="0.25"
     inkscape:showpageshadow="2"
     inkscape:pageopacity="0.0"
     inkscape:pagecheckerboard="0"
     inkscape:deskcolor="#d1d1d1"
     inkscape:document-units="px"
     inkscape:zoom="0.5296875"
     inkscape:cx="1278.1121"
     inkscape:cy="871.26844"
     inkscape:window-width="1920"
     inkscape:window-height="1009"
     inkscape:window-x="1912"
     inkscape:window-y="-8"
     inkscape:window-maximized="1"
     inkscape:current-layer="layer26" /><defs
     id="defs1"><linearGradient
       id="linearGradient161"
       inkscape:collect="always"><stop
         style="stop-color:#74f200;stop-opacity:1;"
         offset="0"
         id="stop160" /><stop
         style="stop-color:#6eff03;stop-opacity:1;"
         offset="1"
         id="stop161" /></linearGradient><linearGradient
       id="swatch47"
       inkscape:swatch="solid"><stop
         style="stop-color:#0dffa2;stop-opacity:1;"
         offset="0"
         id="stop47" /></linearGradient><symbol
       id="ms_note_32"><title
         id="title23">note 32</title><path
         d="m 20.53936,0.01355 v 72.62888 c -2.8161,-2.4727 -8.2842,-2.82562 -13.119105,-0.7832 -5.9301,2.50508 -8.6584,7.66357 -6.8868,11.85737 1.7715,4.1937 7.3708,5.8332 13.300805,3.3282 5.6496,-2.3866 9.5495,-7.6717 8.375,-11.79297 v -30.918 c 2.5916,1.88264 6.0351,3.96096 8.5606,5.86717 3.5089,2.64849 5.8753,5.05641 6.8398,9.2637 0.8452,3.68721 0.039,9.5856 -2.496,15.0586 l 0.9902,0.012 c 2.1844,-4.7682 3.5812,-7.9004 3.2129,-14.5215 -0.118,-2.1218 -0.7304,-4.1605 -1.6778,-6.123 1.3428,-5.01294 1.4122,-9.23592 -0.3515,-13.77737 2.9072,-9.71205 1.4995,-16.27514 -8.1563,-27.21485 C 26.96466,10.44404 22.20926,8.13879 22.20926,0 Z m 1.6699,13.50192 c 2.882,1.84636 6.795,4.67426 8.8867,7.18555 3.8396,4.60966 6.7395,7.83399 5.3341,17.4707 -1.5282,-3.10089 -3.89,-6.41133 -7.2989,-10.27344 -2.1665,-2.45453 -6.9219,-4.75979 -6.9219,-12.89843 z m 0.033,15.02149 c 2.879,1.84672 6.7692,4.66168 8.8535,7.16406 3.6723,4.40882 6.4812,7.55831 5.4903,16.25388 -2.0771,-3.43059 -5.0868,-6.61862 -8.1797,-9.59372 -2.2473,-2.16171 -5.8279,-6.96768 -6.1641,-13.82422 z"
         inkscape:connector-curvature="0"
         sodipodi:nodetypes="ccsssccssccsccscccscssccscsc"
         id="path23" /></symbol><linearGradient
       inkscape:collect="always"
       xlink:href="#linearGradient161"
       id="linearGradient160"
       x1="-3.9910418e-08"
       y1="44.114285"
       x2="39.375557"
       y2="44.114285"
       gradientUnits="userSpaceOnUse" /></defs><g
     inkscape:groupmode="layer"
     id="layer17"
     inkscape:label="Ebene 17"
     transform="translate(-899.82803,-932.62649)"><use
       xlink:href="#ms_note_32"
       id="use1-68"
       transform="matrix(0.87004652,-0.50232158,0.50232158,0.87004652,881.95102,943.78268)"
       style="display:inline;fill:url(#linearGradient160)" /></g></svg>
