<?xml version="1.0" encoding="UTF-8" standalone="no"?>
<!-- Created with Inkscape (http://www.inkscape.org/) -->

<svg
   width="310.20956"
   height="486.46222"
   viewBox="0 0 310.20956 486.46222"
   version="1.1"
   id="svg1"
   inkscape:version="1.3.2 (091e20e, 2023-11-25, custom)"
   sodipodi:docname="note-vectors.svg"
   xml:space="preserve"
   xmlns:inkscape="http://www.inkscape.org/namespaces/inkscape"
   xmlns:sodipodi="http://sodipodi.sourceforge.net/DTD/sodipodi-0.dtd"
   xmlns:xlink="http://www.w3.org/1999/xlink"
   xmlns="http://www.w3.org/2000/svg"
   xmlns:svg="http://www.w3.org/2000/svg"><sodipodi:namedview
     id="namedview1"
     pagecolor="#ffffff"
     bordercolor="#000000"
     borderopacity="0.25"
     inkscape:showpageshadow="2"
     inkscape:pageopacity="0.0"
     inkscape:pagecheckerboard="0"
     inkscape:deskcolor="#d1d1d1"
     inkscape:document-units="px"
     inkscape:zoom="0.5296875"
     inkscape:cx="1278.1121"
     inkscape:cy="871.26844"
     inkscape:window-width="1920"
     inkscape:window-height="1009"
     inkscape:window-x="1912"
     inkscape:window-y="-8"
     inkscape:window-maximized="1"
     inkscape:current-layer="layer26" /><defs
     id="defs1"><linearGradient
       id="linearGradient110"
       inkscape:collect="always"><stop
         style="stop-color:#ff0d0d;stop-opacity:1;"
         offset="0"
         id="stop111" /><stop
         style="stop-color:#ff490d;stop-opacity:1;"
         offset="0.15598291"
         id="stop113" /><stop
         style="stop-color:#ff690d;stop-opacity:1;"
         offset="0.33547008"
         id="stop114" /><stop
         style="stop-color:#ffa00d;stop-opacity:1;"
         offset="0.52029914"
         id="stop115" /><stop
         style="stop-color:#ffa50d;stop-opacity:1;"
         offset="0.69818377"
         id="stop116" /><stop
         style="stop-color:#ffc00d;stop-opacity:0.99367088;"
         offset="0.84909189"
         id="stop117" /><stop
         style="stop-color:#fffc0d;stop-opacity:0.94936711;"
         offset="1"
         id="stop112" /></linearGradient><linearGradient
       id="swatch47"
       inkscape:swatch="solid"><stop
         style="stop-color:#0dffa2;stop-opacity:1;"
         offset="0"
         id="stop47" /></linearGradient><linearGradient
       inkscape:collect="always"
       xlink:href="#linearGradient110"
       id="linearGradient112"
       x1="-9.2324991"
       y1="58.549812"
       x2="59.344337"
       y2="58.549812"
       gradientUnits="userSpaceOnUse" /></defs><g
     inkscape:groupmode="layer"
     id="layer26"
     inkscape:label="Ebene 26"
     transform="translate(-164.15954,-769.70662)"><path
       d="m 36.921406,106.48345 c -1.647576,-2.7865 -1.516274,-6.11599 0.380795,-8.412474 2.294266,-2.776609 5.830193,-2.63566 8.161221,-1.352822 1.974322,1.085943 3.502571,3.225619 3.599048,5.302616 0.122462,2.66239 -1.456048,5.29124 -3.668071,5.99545 1.17695,1.80421 4.90421,1.20276 7.350149,-0.85269 3.401471,-2.85996 4.603311,-6.72268 3.288659,-10.671904 -1.21446,-3.647285 -3.930164,-6.456085 -5.972813,-8.544695 C 48.948524,86.810325 45.8526,83.462395 43.839341,81.567969 40.117427,85.998366 34.478692,88.534502 27.973925,88.38875 21.64922,88.247592 15.108864,85.318781 10.389349,80.260775 6.2582082,75.833267 4.3025912,71.433922 3.6934503,66.699514 2.3139753,55.97272 5.1283343,47.017771 6.1721709,40.916447 2.0738935,36.817094 -1.9155415,32.094068 -4.3031706,27.710715 -7.4750133,21.887618 -10.17469,13.030867 -7.8334454,7.069782 c 0.5198778,-1.3243454 1.5409592,-1.8848861 3.0032603,-1.2222427 4.67466267,2.118465 9.4156941,6.1590957 12.6797456,9.8914277 4.1053635,4.69459 6.7935335,11.887074 7.2510815,16.543473 0.565383,5.749755 0.402172,9.498825 -0.630908,14.306936 1.701603,2.01179 5.16818,5.587587 8.066674,8.692909 7.795006,-6.27357 15.823614,-3.318981 20.507897,1.396573 7.302267,7.35018 5.717901,17.101113 2.151016,22.819862 0.814347,1.006179 4.380247,4.755126 5.949701,6.332627 4.667235,4.690212 7.557411,8.538229 7.694812,13.588092 0.108774,4.035821 -1.695,7.116731 -4.90097,9.596751 -5.813973,4.50001 -14.050257,2.48753 -17.016239,-2.53362 z M 24.724398,72.866586 c 1.74191,3.876114 4.153375,5.187435 8.441706,5.037745 2.395351,-0.0843 2.604414,1.525525 -0.927271,1.683256 -4.969139,0.221404 -9.462539,-2.358694 -12.014853,-6.435849 -3.424833,-5.470857 -2.093116,-12.249698 0.851804,-16.323334 -2.341202,-2.514434 -4.67311,-5.058652 -7.216259,-7.705066 -1.594579,4.783646 -2.723316,10.250146 -2.94518,14.699983 -0.300382,6.020896 0.831321,11.152967 3.819918,15.24207 5.453005,7.461992 14.449121,8.212561 20.526448,5.858324 2.999928,-1.162161 5.801448,-3.298046 7.129532,-5.168076 C 40.218754,77.636405 27.536932,64.312252 26.359571,62.668875 24.146287,65.55062 23.346716,69.802097 24.723932,72.865935 Z M 41.673936,62.818403 C 36.987451,58.723069 31.869203,58.814126 28.063817,61.238902 30.984885,64.310829 42.087903,76.176985 43.833504,77.974945 46.61656,72.587962 45.357042,66.037082 41.673936,62.818403 Z M -0.36322404,13.985943 C -4.2128546,15.876428 -2.3426867,24.544963 -0.13620064,28.842201 1.8188227,32.650392 3.9821032,35.564156 6.7932139,38.358116 8.3565292,33.242708 8.9295091,27.42373 7.8313043,22.346144 7.1096077,19.010972 4.3420818,11.675441 -0.3641413,13.986723 Z"
       inkscape:connector-curvature="0"
       id="path46"
       style="display:inline;mix-blend-mode:normal;fill:url(#linearGradient112);fill-opacity:1;fill-rule:nonzero;stroke:none;stroke-width:0.999899;stroke-dasharray:none;stroke-opacity:1"
       transform="matrix(4.5914618,0,0,4.5914618,204.18689,744.13953)" /></g></svg>
