<?xml version="1.0" encoding="UTF-8" standalone="no"?>
<!-- Created with Inkscape (http://www.inkscape.org/) -->

<svg
   width="89.987808"
   height="139.63229"
   viewBox="0 0 89.987808 139.63229"
   version="1.1"
   id="svg1"
   inkscape:version="1.3.2 (091e20e, 2023-11-25, custom)"
   sodipodi:docname="note-vectors.svg"
   xml:space="preserve"
   xmlns:inkscape="http://www.inkscape.org/namespaces/inkscape"
   xmlns:sodipodi="http://sodipodi.sourceforge.net/DTD/sodipodi-0.dtd"
   xmlns:xlink="http://www.w3.org/1999/xlink"
   xmlns="http://www.w3.org/2000/svg"
   xmlns:svg="http://www.w3.org/2000/svg"><sodipodi:namedview
     id="namedview1"
     pagecolor="#ffffff"
     bordercolor="#000000"
     borderopacity="0.25"
     inkscape:showpageshadow="2"
     inkscape:pageopacity="0.0"
     inkscape:pagecheckerboard="0"
     inkscape:deskcolor="#d1d1d1"
     inkscape:document-units="px"
     inkscape:zoom="0.5296875"
     inkscape:cx="1278.1121"
     inkscape:cy="871.26844"
     inkscape:window-width="1920"
     inkscape:window-height="1009"
     inkscape:window-x="1912"
     inkscape:window-y="-8"
     inkscape:window-maximized="1"
     inkscape:current-layer="layer26" /><defs
     id="defs1"><linearGradient
       id="linearGradient186"
       inkscape:collect="always"><stop
         style="stop-color:#0048f2;stop-opacity:1;"
         offset="0"
         id="stop185" /><stop
         style="stop-color:#0336ff;stop-opacity:1;"
         offset="1"
         id="stop186" /></linearGradient><linearGradient
       id="swatch47"
       inkscape:swatch="solid"><stop
         style="stop-color:#0dffa2;stop-opacity:1;"
         offset="0"
         id="stop47" /></linearGradient><symbol
       id="ms_beamed_notes_32cr"><title
         id="title73">Beamed notes 32Cr</title><path
         d="M 48.93953,9.912608e-4 C 47.25773,0.0229913 45.43533,0.3997913 43.58213,1.182591 c -5.6495,2.3865 -9.5475,7.6717 -8.373,11.792999 v 39.5722 L 1.880931,69.37209 v -36.2852 c 2.8166,2.471 8.285399,2.8233 13.119199,0.7813 5.9301,-2.5049 8.6562,-7.6618 6.8847,-11.8555 -1.7714,-4.1938 -7.3706,-5.8351 -13.300699,-3.3301 -5.6519,2.3877 -9.5530003,7.6767 -8.3731003,11.7988 v 58.6133 l 36.6679993,-17.5 v -56.0097 c 2.816,2.4727 8.2841,2.8275 13.1191,0.7851 5.93,-2.505 8.6581,-7.663699 6.8867,-11.857399 -1.2179,-2.8832 -4.2453,-4.5593997 -7.9453,-4.5116997392 z M 35.20913,56.43259 v 3.1152 L 1.880931,76.37209 v -3.1153 z m 0,7 v 2.2774 l -33.328199,17.5 v -2.9532 z"
         inkscape:connector-curvature="0"
         id="path73" /></symbol><linearGradient
       inkscape:collect="always"
       xlink:href="#linearGradient186"
       id="linearGradient185"
       x1="-2.0378089e-08"
       y1="44.547344"
       x2="57.418209"
       y2="44.547344"
       gradientUnits="userSpaceOnUse" /></defs><g
     inkscape:groupmode="layer"
     id="layer5"
     inkscape:label="Ebene 5"
     transform="translate(-1783.6803,-1156.5965)"><use
       xlink:href="#ms_beamed_notes_32cr"
       id="use1-1"
       transform="matrix(1.5672347,0,0,1.5672347,1783.6803,1156.5965)"
       style="display:inline;fill:url(#linearGradient185)" /></g></svg>
